<mxfile host="app.diagrams.net" modified="2021-02-09T09:21:12.638Z" agent="5.0 (Windows NT 10.0; Win64; x64) AppleWebKit/537.36 (KHTML, like Gecko) Chrome/87.0.4280.141 Safari/537.36" etag="63KmsyXJtMuZt8RHusK7" version="14.2.5" type="github" pages="5">
  <diagram name="Page-1" id="54c02804-9d69-ba3f-8aca-1021b27b8050">
    <mxGraphModel dx="2048" dy="1108" grid="1" gridSize="10" guides="1" tooltips="1" connect="1" arrows="1" fold="1" page="1" pageScale="1" pageWidth="1100" pageHeight="850" background="#ffffff" math="0" shadow="0">
      <root>
        <mxCell id="0" />
        <mxCell id="1" parent="0" />
        <mxCell id="7c3a617817c5cf35-16" value="" style="html=1;shadow=0;dashed=0;align=center;verticalAlign=middle;shape=mxgraph.arrows2.arrow;dy=0.6;dx=40;direction=north;notch=0;strokeWidth=2;fillColor=#CCCCCC;fontSize=14;fontColor=#000000;strokeColor=none;" parent="1" vertex="1">
          <mxGeometry x="73" y="595" width="160" height="60" as="geometry" />
        </mxCell>
        <mxCell id="7c3a617817c5cf35-4" value="2017" style="verticalLabelPosition=bottom;verticalAlign=top;html=1;shape=mxgraph.infographic.shadedCube;isoAngle=15;fillColor=#10739E;strokeColor=none;fontFamily=Helvetica;fontSize=20;align=center;strokeWidth=2;" parent="1" vertex="1">
          <mxGeometry x="93" y="445" width="120" height="110" as="geometry" />
        </mxCell>
        <mxCell id="7c3a617817c5cf35-7" value="2018" style="verticalLabelPosition=bottom;verticalAlign=top;html=1;shape=mxgraph.infographic.shadedCube;isoAngle=15;fillColor=#F2931E;strokeColor=none;fontFamily=Helvetica;fontSize=20;align=center;strokeWidth=2;" parent="1" vertex="1">
          <mxGeometry x="293" y="415" width="120" height="140" as="geometry" />
        </mxCell>
        <mxCell id="7c3a617817c5cf35-8" value="2019" style="verticalLabelPosition=bottom;verticalAlign=top;html=1;shape=mxgraph.infographic.shadedCube;isoAngle=15;fillColor=#AE4132;strokeColor=none;fontFamily=Helvetica;fontSize=20;align=center;strokeWidth=2;" parent="1" vertex="1">
          <mxGeometry x="493" y="365" width="120" height="190" as="geometry" />
        </mxCell>
        <mxCell id="7c3a617817c5cf35-9" value="2020" style="verticalLabelPosition=bottom;verticalAlign=top;html=1;shape=mxgraph.infographic.shadedCube;isoAngle=15;fillColor=#23445D;strokeColor=none;fontFamily=Helvetica;fontSize=20;align=center;strokeWidth=2;" parent="1" vertex="1">
          <mxGeometry x="693" y="274.9999999999999" width="120" height="280" as="geometry" />
        </mxCell>
        <mxCell id="7c3a617817c5cf35-10" value="2021" style="verticalLabelPosition=bottom;verticalAlign=top;html=1;shape=mxgraph.infographic.shadedCube;isoAngle=15;fillColor=#12AAB5;strokeColor=none;fontFamily=Helvetica;fontSize=20;align=center;strokeWidth=2;" parent="1" vertex="1">
          <mxGeometry x="893" y="184.99999999999986" width="120" height="370" as="geometry" />
        </mxCell>
        <mxCell id="7c3a617817c5cf35-11" value="&lt;h1&gt;Heading&lt;/h1&gt;&lt;p&gt;Lorem ipsum dolor sit amet, consectetur adipisicing elit, sed do eiusmod tempor incididunt ut labore et dolore magna aliqua.&lt;/p&gt;" style="text;html=1;spacing=5;spacingTop=-20;whiteSpace=wrap;overflow=hidden;strokeWidth=2;fillColor=none;gradientColor=none;fontSize=14;align=center;" parent="1" vertex="1">
          <mxGeometry x="18" y="655" width="270" height="140" as="geometry" />
        </mxCell>
        <mxCell id="7c3a617817c5cf35-12" value="&lt;h1&gt;Heading&lt;/h1&gt;&lt;p&gt;Lorem ipsum dolor sit amet, consectetur adipisicing elit, sed do eiusmod tempor incididunt ut labore et dolore magna aliqua.&lt;/p&gt;" style="text;html=1;spacing=5;spacingTop=-20;whiteSpace=wrap;overflow=hidden;strokeWidth=2;fillColor=none;gradientColor=none;fontSize=14;align=center;" parent="1" vertex="1">
          <mxGeometry x="215" y="205" width="270" height="140" as="geometry" />
        </mxCell>
        <mxCell id="7c3a617817c5cf35-13" value="&lt;h1&gt;Heading&lt;/h1&gt;&lt;p&gt;Lorem ipsum dolor sit amet, consectetur adipisicing elit, sed do eiusmod tempor incididunt ut labore et dolore magna aliqua.&lt;/p&gt;" style="text;html=1;spacing=5;spacingTop=-20;whiteSpace=wrap;overflow=hidden;strokeWidth=2;fillColor=none;gradientColor=none;fontSize=14;align=center;" parent="1" vertex="1">
          <mxGeometry x="419" y="655" width="270" height="140" as="geometry" />
        </mxCell>
        <mxCell id="7c3a617817c5cf35-14" value="&lt;h1&gt;Heading&lt;/h1&gt;&lt;p&gt;Lorem ipsum dolor sit amet, consectetur adipisicing elit, sed do eiusmod tempor incididunt ut labore et dolore magna aliqua.&lt;/p&gt;" style="text;html=1;spacing=5;spacingTop=-20;whiteSpace=wrap;overflow=hidden;strokeWidth=2;fillColor=none;gradientColor=none;fontSize=14;align=center;" parent="1" vertex="1">
          <mxGeometry x="819" y="655" width="270" height="140" as="geometry" />
        </mxCell>
        <mxCell id="7c3a617817c5cf35-15" value="&lt;h1&gt;Heading&lt;/h1&gt;&lt;p&gt;Lorem ipsum dolor sit amet, consectetur adipisicing elit, sed do eiusmod tempor incididunt ut labore et dolore magna aliqua.&lt;/p&gt;" style="text;html=1;spacing=5;spacingTop=-20;whiteSpace=wrap;overflow=hidden;strokeWidth=2;fillColor=none;gradientColor=none;fontSize=14;align=center;" parent="1" vertex="1">
          <mxGeometry x="613" y="55" width="270" height="140" as="geometry" />
        </mxCell>
        <mxCell id="7c3a617817c5cf35-18" value="" style="html=1;shadow=0;dashed=0;align=center;verticalAlign=middle;shape=mxgraph.arrows2.arrow;dy=0.6;dx=40;direction=north;notch=0;strokeWidth=2;fillColor=#CCCCCC;fontSize=14;fontColor=#000000;strokeColor=none;" parent="1" vertex="1">
          <mxGeometry x="474" y="595" width="160" height="60" as="geometry" />
        </mxCell>
        <mxCell id="7c3a617817c5cf35-19" value="" style="html=1;shadow=0;dashed=0;align=center;verticalAlign=middle;shape=mxgraph.arrows2.arrow;dy=0.6;dx=40;direction=north;notch=0;strokeWidth=2;fillColor=#CCCCCC;fontSize=14;fontColor=#000000;strokeColor=none;" parent="1" vertex="1">
          <mxGeometry x="874" y="595" width="160" height="60" as="geometry" />
        </mxCell>
        <mxCell id="7c3a617817c5cf35-20" value="" style="html=1;shadow=0;dashed=0;align=center;verticalAlign=middle;shape=mxgraph.arrows2.arrow;dy=0.6;dx=40;direction=north;notch=0;strokeWidth=2;fillColor=#CCCCCC;fontSize=14;fontColor=#000000;strokeColor=none;flipV=1;" parent="1" vertex="1">
          <mxGeometry x="275" y="340" width="160" height="60" as="geometry" />
        </mxCell>
        <mxCell id="7c3a617817c5cf35-21" value="" style="html=1;shadow=0;dashed=0;align=center;verticalAlign=middle;shape=mxgraph.arrows2.arrow;dy=0.6;dx=40;direction=north;notch=0;strokeWidth=2;fillColor=#CCCCCC;fontSize=14;fontColor=#000000;strokeColor=none;flipV=1;" parent="1" vertex="1">
          <mxGeometry x="673" y="195" width="160" height="60" as="geometry" />
        </mxCell>
        <mxCell id="YFzm86Dy1MC4mS-PUuTp-1" value="test" style="ellipse;shape=cloud;whiteSpace=wrap;html=1;" parent="1" vertex="1">
          <mxGeometry x="100" y="10" width="260" height="190" as="geometry" />
        </mxCell>
      </root>
    </mxGraphModel>
  </diagram>
  <diagram id="Z6pRHcv02TMifso5XgwZ" name="coaching自己">
    <mxGraphModel dx="2875" dy="2277" grid="0" gridSize="10" guides="1" tooltips="1" connect="1" arrows="1" fold="1" page="1" pageScale="1" pageWidth="827" pageHeight="1169" math="0" shadow="0">
      <root>
        <mxCell id="yvwaqxqMlEnto4mfCt6T-0" />
        <mxCell id="yvwaqxqMlEnto4mfCt6T-1" parent="yvwaqxqMlEnto4mfCt6T-0" />
        <mxCell id="ueAyey_N2Fq6TJqxVvPk-0" value="" style="rounded=0;whiteSpace=wrap;html=1;" parent="yvwaqxqMlEnto4mfCt6T-1" vertex="1">
          <mxGeometry x="-132" y="205" width="142" height="191" as="geometry" />
        </mxCell>
        <mxCell id="nlQWi4gjoz_ijPSZ3pIA-0" value="我做的最多/最牛的项目" style="rounded=0;whiteSpace=wrap;html=1;" parent="yvwaqxqMlEnto4mfCt6T-1" vertex="1">
          <mxGeometry x="124" y="57" width="149" height="41" as="geometry" />
        </mxCell>
        <mxCell id="nlQWi4gjoz_ijPSZ3pIA-2" value="COS" style="rounded=0;whiteSpace=wrap;html=1;" parent="yvwaqxqMlEnto4mfCt6T-1" vertex="1">
          <mxGeometry y="129" width="120" height="37" as="geometry" />
        </mxCell>
        <mxCell id="nlQWi4gjoz_ijPSZ3pIA-3" value="万象" style="rounded=0;whiteSpace=wrap;html=1;" parent="yvwaqxqMlEnto4mfCt6T-1" vertex="1">
          <mxGeometry x="273" y="129" width="120" height="37" as="geometry" />
        </mxCell>
        <mxCell id="nlQWi4gjoz_ijPSZ3pIA-4" value="统计计费/数据湖" style="rounded=0;whiteSpace=wrap;html=1;" parent="yvwaqxqMlEnto4mfCt6T-1" vertex="1">
          <mxGeometry x="-120" y="339" width="120" height="44" as="geometry" />
        </mxCell>
        <mxCell id="nlQWi4gjoz_ijPSZ3pIA-5" value="" style="endArrow=none;dashed=1;html=1;" parent="yvwaqxqMlEnto4mfCt6T-1" edge="1">
          <mxGeometry width="50" height="50" relative="1" as="geometry">
            <mxPoint x="201" y="819.8620689655172" as="sourcePoint" />
            <mxPoint x="201" y="-7" as="targetPoint" />
          </mxGeometry>
        </mxCell>
        <mxCell id="nlQWi4gjoz_ijPSZ3pIA-6" value="涉黄/合规封禁" style="rounded=0;whiteSpace=wrap;html=1;" parent="yvwaqxqMlEnto4mfCt6T-1" vertex="1">
          <mxGeometry x="-120" y="224" width="120" height="44" as="geometry" />
        </mxCell>
        <mxCell id="nlQWi4gjoz_ijPSZ3pIA-7" value="运营系统/控制台" style="rounded=0;whiteSpace=wrap;html=1;" parent="yvwaqxqMlEnto4mfCt6T-1" vertex="1">
          <mxGeometry x="-120" y="454" width="120" height="44" as="geometry" />
        </mxCell>
        <mxCell id="nlQWi4gjoz_ijPSZ3pIA-8" value="cgi/cos各种高级功能" style="rounded=0;whiteSpace=wrap;html=1;" parent="yvwaqxqMlEnto4mfCt6T-1" vertex="1">
          <mxGeometry x="-120" y="571" width="120" height="44" as="geometry" />
        </mxCell>
        <mxCell id="nlQWi4gjoz_ijPSZ3pIA-9" value="文档预览" style="rounded=0;whiteSpace=wrap;html=1;" parent="yvwaqxqMlEnto4mfCt6T-1" vertex="1">
          <mxGeometry x="201" y="219" width="120" height="44" as="geometry" />
        </mxCell>
        <mxCell id="ueAyey_N2Fq6TJqxVvPk-1" value="需求：&lt;br&gt;1、合规封禁&lt;br&gt;2、统计计费&lt;br&gt;&lt;br&gt;手段：&lt;br&gt;1、cosn + presto" style="rounded=0;whiteSpace=wrap;html=1;" parent="yvwaqxqMlEnto4mfCt6T-1" vertex="1">
          <mxGeometry x="21" y="205" width="142" height="191" as="geometry" />
        </mxCell>
        <mxCell id="ueAyey_N2Fq6TJqxVvPk-2" value="需求：&lt;br&gt;1、性能&lt;br&gt;2、成本&lt;br&gt;3、可扩展性&lt;br&gt;&lt;br&gt;手段：&lt;br&gt;1、缓存&lt;br&gt;2、docker&lt;br&gt;3、任务系统" style="rounded=0;whiteSpace=wrap;html=1;" parent="yvwaqxqMlEnto4mfCt6T-1" vertex="1">
          <mxGeometry x="343" y="205" width="142" height="191" as="geometry" />
        </mxCell>
      </root>
    </mxGraphModel>
  </diagram>
  <diagram id="cjZeZdOjmpxU4Ib3bEYY" name="整体架构图">
    <mxGraphModel dx="2875" dy="2277" grid="0" gridSize="10" guides="1" tooltips="1" connect="1" arrows="1" fold="1" page="1" pageScale="1" pageWidth="827" pageHeight="1169" math="0" shadow="0">
      <root>
        <mxCell id="sr8ndwjYwEoH3tyWyaKA-0" />
        <mxCell id="sr8ndwjYwEoH3tyWyaKA-1" parent="sr8ndwjYwEoH3tyWyaKA-0" />
        <mxCell id="sr8ndwjYwEoH3tyWyaKA-2" value="CGI接入层" style="whiteSpace=wrap;html=1;fillColor=#dae8fc;rounded=1;strokeColor=#6c8ebf;" parent="sr8ndwjYwEoH3tyWyaKA-1" vertex="1">
          <mxGeometry x="87" y="255" width="346" height="47" as="geometry" />
        </mxCell>
        <mxCell id="1cF8yq4eA-Xv76nk4kAs-0" value="AI&lt;br&gt;同步服务" style="whiteSpace=wrap;html=1;fillColor=#fff2cc;rounded=1;strokeColor=#d6b656;" parent="sr8ndwjYwEoH3tyWyaKA-1" vertex="1">
          <mxGeometry x="-60" y="330" width="50" height="40" as="geometry" />
        </mxCell>
        <mxCell id="1cF8yq4eA-Xv76nk4kAs-1" value="COS存储" style="whiteSpace=wrap;html=1;fillColor=#f8cecc;rounded=1;strokeColor=#b85450;" parent="sr8ndwjYwEoH3tyWyaKA-1" vertex="1">
          <mxGeometry x="-360" y="810" width="360" height="40" as="geometry" />
        </mxCell>
        <mxCell id="1cF8yq4eA-Xv76nk4kAs-2" value="同步处理能力&lt;br&gt;&lt;br&gt;" style="whiteSpace=wrap;html=1;fillColor=#fff2cc;rounded=1;strokeColor=#d6b656;" parent="sr8ndwjYwEoH3tyWyaKA-1" vertex="1">
          <mxGeometry x="-180" y="598" width="150" height="50" as="geometry" />
        </mxCell>
        <mxCell id="1cF8yq4eA-Xv76nk4kAs-3" value="文档&lt;br&gt;同步服务" style="whiteSpace=wrap;html=1;fillColor=#fff2cc;rounded=1;strokeColor=#d6b656;" parent="sr8ndwjYwEoH3tyWyaKA-1" vertex="1">
          <mxGeometry x="-150" y="330" width="50" height="40" as="geometry" />
        </mxCell>
        <mxCell id="1cF8yq4eA-Xv76nk4kAs-4" value="&lt;span style=&quot;color: rgb(0 , 0 , 0) ; font-family: &amp;#34;helvetica&amp;#34; ; font-style: normal ; font-weight: 400 ; letter-spacing: normal ; text-align: center ; text-indent: 0px ; text-transform: none ; word-spacing: 0px ; background-color: rgb(248 , 249 , 250) ; display: inline ; float: none&quot;&gt;&lt;font style=&quot;font-size: 24px&quot;&gt;...&lt;/font&gt;&lt;/span&gt;" style="text;whiteSpace=wrap;html=1;" parent="sr8ndwjYwEoH3tyWyaKA-1" vertex="1">
          <mxGeometry x="-90" y="330" width="20" height="40" as="geometry" />
        </mxCell>
        <mxCell id="1cF8yq4eA-Xv76nk4kAs-5" value="" style="endArrow=classic;html=1;entryX=0.222;entryY=0;entryDx=0;entryDy=0;entryPerimeter=0;" parent="sr8ndwjYwEoH3tyWyaKA-1" source="uKQU-L9ut1QwHJiRZmz_-44" edge="1">
          <mxGeometry width="50" height="50" relative="1" as="geometry">
            <mxPoint x="111" y="175" as="sourcePoint" />
            <mxPoint x="110.92000000000007" y="254.9999999999999" as="targetPoint" />
          </mxGeometry>
        </mxCell>
        <mxCell id="1cF8yq4eA-Xv76nk4kAs-6" value="&lt;div style=&quot;text-align: center&quot;&gt;&lt;font face=&quot;helvetica&quot;&gt;存储接口&lt;/font&gt;&lt;/div&gt;" style="text;whiteSpace=wrap;html=1;" parent="sr8ndwjYwEoH3tyWyaKA-1" vertex="1">
          <mxGeometry x="100" y="215" width="60" height="40" as="geometry" />
        </mxCell>
        <mxCell id="1cF8yq4eA-Xv76nk4kAs-7" value="AI&lt;br&gt;异步服务" style="whiteSpace=wrap;html=1;fillColor=#f8cecc;rounded=1;strokeColor=#b85450;" parent="sr8ndwjYwEoH3tyWyaKA-1" vertex="1">
          <mxGeometry x="-70" y="503" width="50" height="40" as="geometry" />
        </mxCell>
        <mxCell id="1cF8yq4eA-Xv76nk4kAs-8" value="图片&lt;br&gt;异步服务" style="whiteSpace=wrap;html=1;fillColor=#f8cecc;rounded=1;strokeColor=#b85450;" parent="sr8ndwjYwEoH3tyWyaKA-1" vertex="1">
          <mxGeometry x="-220" y="503" width="50" height="40" as="geometry" />
        </mxCell>
        <mxCell id="1cF8yq4eA-Xv76nk4kAs-9" value="文档&lt;br&gt;异步服务" style="whiteSpace=wrap;html=1;fillColor=#f8cecc;rounded=1;strokeColor=#b85450;" parent="sr8ndwjYwEoH3tyWyaKA-1" vertex="1">
          <mxGeometry x="-160" y="503" width="50" height="40" as="geometry" />
        </mxCell>
        <mxCell id="1cF8yq4eA-Xv76nk4kAs-10" value="&lt;span style=&quot;color: rgb(0 , 0 , 0) ; font-family: &amp;#34;helvetica&amp;#34; ; font-style: normal ; font-weight: 400 ; letter-spacing: normal ; text-align: center ; text-indent: 0px ; text-transform: none ; word-spacing: 0px ; background-color: rgb(248 , 249 , 250) ; display: inline ; float: none&quot;&gt;&lt;font style=&quot;font-size: 24px&quot;&gt;...&lt;/font&gt;&lt;/span&gt;" style="text;whiteSpace=wrap;html=1;" parent="sr8ndwjYwEoH3tyWyaKA-1" vertex="1">
          <mxGeometry x="-100" y="503" width="20" height="40" as="geometry" />
        </mxCell>
        <mxCell id="1cF8yq4eA-Xv76nk4kAs-14" value="&lt;div style=&quot;text-align: center&quot;&gt;&lt;font face=&quot;helvetica&quot;&gt;异步&lt;/font&gt;&lt;/div&gt;&lt;div style=&quot;text-align: center&quot;&gt;&lt;font face=&quot;helvetica&quot;&gt;处理接口&lt;/font&gt;&lt;/div&gt;" style="text;whiteSpace=wrap;html=1;" parent="sr8ndwjYwEoH3tyWyaKA-1" vertex="1">
          <mxGeometry x="387" y="205" width="60" height="40" as="geometry" />
        </mxCell>
        <mxCell id="1cF8yq4eA-Xv76nk4kAs-15" value="同步服务配置" style="whiteSpace=wrap;html=1;fillColor=#fff2cc;rounded=1;strokeColor=#d6b656;" parent="sr8ndwjYwEoH3tyWyaKA-1" vertex="1">
          <mxGeometry x="220" y="292" width="80" height="20" as="geometry" />
        </mxCell>
        <mxCell id="uKQU-L9ut1QwHJiRZmz_-0" value="图片" style="whiteSpace=wrap;html=1;fillColor=#fff2cc;rounded=1;strokeColor=#d6b656;" parent="sr8ndwjYwEoH3tyWyaKA-1" vertex="1">
          <mxGeometry x="-180" y="628" width="30" height="20" as="geometry" />
        </mxCell>
        <mxCell id="uKQU-L9ut1QwHJiRZmz_-1" value="文档" style="whiteSpace=wrap;html=1;fillColor=#fff2cc;rounded=1;strokeColor=#d6b656;" parent="sr8ndwjYwEoH3tyWyaKA-1" vertex="1">
          <mxGeometry x="-150" y="628" width="30" height="20" as="geometry" />
        </mxCell>
        <mxCell id="uKQU-L9ut1QwHJiRZmz_-2" value="视频" style="whiteSpace=wrap;html=1;fillColor=#fff2cc;rounded=1;strokeColor=#d6b656;" parent="sr8ndwjYwEoH3tyWyaKA-1" vertex="1">
          <mxGeometry x="-120" y="628" width="30" height="20" as="geometry" />
        </mxCell>
        <mxCell id="uKQU-L9ut1QwHJiRZmz_-3" value="语音" style="whiteSpace=wrap;html=1;fillColor=#fff2cc;rounded=1;strokeColor=#d6b656;" parent="sr8ndwjYwEoH3tyWyaKA-1" vertex="1">
          <mxGeometry x="-90" y="628" width="30" height="20" as="geometry" />
        </mxCell>
        <mxCell id="uKQU-L9ut1QwHJiRZmz_-4" value="AI" style="whiteSpace=wrap;html=1;fillColor=#fff2cc;rounded=1;strokeColor=#d6b656;" parent="sr8ndwjYwEoH3tyWyaKA-1" vertex="1">
          <mxGeometry x="-60" y="628" width="30" height="20" as="geometry" />
        </mxCell>
        <mxCell id="uKQU-L9ut1QwHJiRZmz_-5" value="异步处理能力&lt;br&gt;&lt;br&gt;" style="whiteSpace=wrap;html=1;fillColor=#d5e8d4;rounded=1;strokeColor=#82b366;" parent="sr8ndwjYwEoH3tyWyaKA-1" vertex="1">
          <mxGeometry x="-150" y="740" width="150" height="50" as="geometry" />
        </mxCell>
        <mxCell id="uKQU-L9ut1QwHJiRZmz_-6" value="图片" style="whiteSpace=wrap;html=1;fillColor=#d5e8d4;rounded=1;strokeColor=#82b366;" parent="sr8ndwjYwEoH3tyWyaKA-1" vertex="1">
          <mxGeometry x="-150" y="770" width="30" height="20" as="geometry" />
        </mxCell>
        <mxCell id="uKQU-L9ut1QwHJiRZmz_-7" value="文档" style="whiteSpace=wrap;html=1;fillColor=#d5e8d4;rounded=1;strokeColor=#82b366;" parent="sr8ndwjYwEoH3tyWyaKA-1" vertex="1">
          <mxGeometry x="-120" y="770" width="30" height="20" as="geometry" />
        </mxCell>
        <mxCell id="uKQU-L9ut1QwHJiRZmz_-8" value="视频" style="whiteSpace=wrap;html=1;fillColor=#d5e8d4;rounded=1;strokeColor=#82b366;" parent="sr8ndwjYwEoH3tyWyaKA-1" vertex="1">
          <mxGeometry x="-90" y="770" width="30" height="20" as="geometry" />
        </mxCell>
        <mxCell id="uKQU-L9ut1QwHJiRZmz_-9" value="语音" style="whiteSpace=wrap;html=1;fillColor=#d5e8d4;rounded=1;strokeColor=#82b366;" parent="sr8ndwjYwEoH3tyWyaKA-1" vertex="1">
          <mxGeometry x="-60" y="770" width="30" height="20" as="geometry" />
        </mxCell>
        <mxCell id="uKQU-L9ut1QwHJiRZmz_-10" value="AI" style="whiteSpace=wrap;html=1;fillColor=#d5e8d4;rounded=1;strokeColor=#82b366;" parent="sr8ndwjYwEoH3tyWyaKA-1" vertex="1">
          <mxGeometry x="-30" y="770" width="30" height="20" as="geometry" />
        </mxCell>
        <mxCell id="uKQU-L9ut1QwHJiRZmz_-12" value="" style="endArrow=classic;html=1;" parent="sr8ndwjYwEoH3tyWyaKA-1" source="uKQU-L9ut1QwHJiRZmz_-44" edge="1">
          <mxGeometry width="50" height="50" relative="1" as="geometry">
            <mxPoint x="381" y="175.7999999999999" as="sourcePoint" />
            <mxPoint x="393" y="254" as="targetPoint" />
          </mxGeometry>
        </mxCell>
        <mxCell id="uKQU-L9ut1QwHJiRZmz_-14" value="" style="fontColor=#0066CC;verticalAlign=top;verticalLabelPosition=bottom;labelPosition=center;align=center;html=1;outlineConnect=0;fillColor=#CCCCCC;strokeColor=#6881B3;gradientColor=none;gradientDirection=north;strokeWidth=2;shape=mxgraph.networks.storage;" parent="sr8ndwjYwEoH3tyWyaKA-1" vertex="1">
          <mxGeometry x="87" y="342" width="50" height="70" as="geometry" />
        </mxCell>
        <mxCell id="uKQU-L9ut1QwHJiRZmz_-15" value="&lt;span style=&quot;color: rgb(0, 0, 0); font-family: helvetica; font-size: 12px; font-style: normal; font-weight: 400; letter-spacing: normal; text-align: center; text-indent: 0px; text-transform: none; word-spacing: 0px; background-color: rgb(248, 249, 250); display: inline; float: none;&quot;&gt;COS存储&lt;/span&gt;" style="text;whiteSpace=wrap;html=1;" parent="sr8ndwjYwEoH3tyWyaKA-1" vertex="1">
          <mxGeometry x="87" y="416" width="60" height="30" as="geometry" />
        </mxCell>
        <mxCell id="uKQU-L9ut1QwHJiRZmz_-16" value="" style="endArrow=classic;html=1;entryX=0.222;entryY=0;entryDx=0;entryDy=0;entryPerimeter=0;" parent="sr8ndwjYwEoH3tyWyaKA-1" edge="1">
          <mxGeometry width="50" height="50" relative="1" as="geometry">
            <mxPoint x="273" y="174.9999999999999" as="sourcePoint" />
            <mxPoint x="272.9200000000001" y="254.9999999999999" as="targetPoint" />
          </mxGeometry>
        </mxCell>
        <mxCell id="uKQU-L9ut1QwHJiRZmz_-17" value="&lt;div style=&quot;text-align: center&quot;&gt;&lt;font face=&quot;helvetica&quot;&gt;同步&lt;/font&gt;&lt;/div&gt;&lt;div style=&quot;text-align: center&quot;&gt;&lt;font face=&quot;helvetica&quot;&gt;处理接口&lt;/font&gt;&lt;/div&gt;" style="text;whiteSpace=wrap;html=1;" parent="sr8ndwjYwEoH3tyWyaKA-1" vertex="1">
          <mxGeometry x="213" y="205" width="60" height="40" as="geometry" />
        </mxCell>
        <mxCell id="uKQU-L9ut1QwHJiRZmz_-18" value="" style="endArrow=classic;html=1;" parent="sr8ndwjYwEoH3tyWyaKA-1" target="uKQU-L9ut1QwHJiRZmz_-14" edge="1">
          <mxGeometry width="50" height="50" relative="1" as="geometry">
            <mxPoint x="111.74000000000001" y="301.9999999999999" as="sourcePoint" />
            <mxPoint x="112" y="322" as="targetPoint" />
          </mxGeometry>
        </mxCell>
        <mxCell id="uKQU-L9ut1QwHJiRZmz_-21" value="" style="pointerEvents=1;shadow=0;dashed=0;html=1;strokeColor=none;fillColor=#505050;labelPosition=center;verticalLabelPosition=bottom;verticalAlign=top;outlineConnect=0;align=center;shape=mxgraph.office.servers.datacenter;" parent="sr8ndwjYwEoH3tyWyaKA-1" vertex="1">
          <mxGeometry x="174" y="-200" width="53" height="53" as="geometry" />
        </mxCell>
        <mxCell id="uKQU-L9ut1QwHJiRZmz_-25" value="&lt;span style=&quot;color: rgb(0 , 0 , 0) ; font-family: &amp;#34;helvetica&amp;#34; ; font-size: 12px ; font-style: normal ; font-weight: 400 ; letter-spacing: normal ; text-align: center ; text-indent: 0px ; text-transform: none ; word-spacing: 0px ; background-color: rgb(248 , 249 , 250) ; display: inline ; float: none&quot;&gt;客户业务&lt;/span&gt;" style="text;whiteSpace=wrap;html=1;" parent="sr8ndwjYwEoH3tyWyaKA-1" vertex="1">
          <mxGeometry x="247" y="-178.5" width="80" height="30" as="geometry" />
        </mxCell>
        <mxCell id="uKQU-L9ut1QwHJiRZmz_-28" value="图片服务" style="whiteSpace=wrap;html=1;fillColor=#f5f5f5;rounded=1;strokeColor=#666666;fontColor=#333333;" parent="sr8ndwjYwEoH3tyWyaKA-1" vertex="1">
          <mxGeometry x="91" y="-79" width="60" height="47" as="geometry" />
        </mxCell>
        <mxCell id="uKQU-L9ut1QwHJiRZmz_-29" value="文档服务" style="whiteSpace=wrap;html=1;fillColor=#f5f5f5;rounded=1;strokeColor=#666666;fontColor=#333333;" parent="sr8ndwjYwEoH3tyWyaKA-1" vertex="1">
          <mxGeometry x="171" y="-79" width="60" height="47" as="geometry" />
        </mxCell>
        <mxCell id="uKQU-L9ut1QwHJiRZmz_-30" value="AI服务" style="whiteSpace=wrap;html=1;fillColor=#f5f5f5;rounded=1;strokeColor=#666666;fontColor=#333333;" parent="sr8ndwjYwEoH3tyWyaKA-1" vertex="1">
          <mxGeometry x="251" y="-79" width="60" height="47" as="geometry" />
        </mxCell>
        <mxCell id="uKQU-L9ut1QwHJiRZmz_-32" value="审核服务" style="whiteSpace=wrap;html=1;fillColor=#f5f5f5;rounded=1;strokeColor=#666666;fontColor=#333333;" parent="sr8ndwjYwEoH3tyWyaKA-1" vertex="1">
          <mxGeometry x="331" y="-79" width="60" height="47" as="geometry" />
        </mxCell>
        <mxCell id="uKQU-L9ut1QwHJiRZmz_-34" value="" style="endArrow=classic;html=1;entryX=0.5;entryY=0;entryDx=0;entryDy=0;" parent="sr8ndwjYwEoH3tyWyaKA-1" target="uKQU-L9ut1QwHJiRZmz_-28" edge="1">
          <mxGeometry width="50" height="50" relative="1" as="geometry">
            <mxPoint x="121" y="-116" as="sourcePoint" />
            <mxPoint x="251" y="-76" as="targetPoint" />
            <Array as="points">
              <mxPoint x="121" y="-116" />
            </Array>
          </mxGeometry>
        </mxCell>
        <mxCell id="uKQU-L9ut1QwHJiRZmz_-37" value="" style="endArrow=classic;html=1;entryX=0.5;entryY=0;entryDx=0;entryDy=0;" parent="sr8ndwjYwEoH3tyWyaKA-1" edge="1">
          <mxGeometry width="50" height="50" relative="1" as="geometry">
            <mxPoint x="200.65999999999997" y="-116" as="sourcePoint" />
            <mxPoint x="200.65999999999997" y="-76" as="targetPoint" />
            <Array as="points">
              <mxPoint x="200.65999999999997" y="-116" />
            </Array>
          </mxGeometry>
        </mxCell>
        <mxCell id="uKQU-L9ut1QwHJiRZmz_-38" value="" style="endArrow=classic;html=1;entryX=0.5;entryY=0;entryDx=0;entryDy=0;" parent="sr8ndwjYwEoH3tyWyaKA-1" edge="1">
          <mxGeometry width="50" height="50" relative="1" as="geometry">
            <mxPoint x="280.65999999999985" y="-116" as="sourcePoint" />
            <mxPoint x="280.65999999999985" y="-76" as="targetPoint" />
            <Array as="points">
              <mxPoint x="280.65999999999997" y="-116" />
            </Array>
          </mxGeometry>
        </mxCell>
        <mxCell id="uKQU-L9ut1QwHJiRZmz_-39" value="" style="endArrow=classic;startArrow=classic;html=1;exitX=0.5;exitY=0;exitDx=0;exitDy=0;entryX=0.626;entryY=0.032;entryDx=0;entryDy=0;entryPerimeter=0;" parent="sr8ndwjYwEoH3tyWyaKA-1" target="uKQU-L9ut1QwHJiRZmz_-32" edge="1">
          <mxGeometry width="50" height="50" relative="1" as="geometry">
            <mxPoint x="41" y="-79" as="sourcePoint" />
            <mxPoint x="91" y="-146" as="targetPoint" />
            <Array as="points">
              <mxPoint x="41" y="-116" />
              <mxPoint x="369" y="-116" />
            </Array>
          </mxGeometry>
        </mxCell>
        <mxCell id="uKQU-L9ut1QwHJiRZmz_-40" value="" style="endArrow=none;html=1;" parent="sr8ndwjYwEoH3tyWyaKA-1" target="uKQU-L9ut1QwHJiRZmz_-21" edge="1">
          <mxGeometry width="50" height="50" relative="1" as="geometry">
            <mxPoint x="201" y="-116" as="sourcePoint" />
            <mxPoint x="267" y="-146" as="targetPoint" />
          </mxGeometry>
        </mxCell>
        <mxCell id="uKQU-L9ut1QwHJiRZmz_-41" value="" style="fontColor=#0066CC;verticalAlign=top;verticalLabelPosition=bottom;labelPosition=center;align=center;html=1;outlineConnect=0;fillColor=#CCCCCC;strokeColor=#6881B3;gradientColor=none;gradientDirection=north;strokeWidth=2;shape=mxgraph.networks.storage;" parent="sr8ndwjYwEoH3tyWyaKA-1" vertex="1">
          <mxGeometry x="17" y="-79" width="50" height="43" as="geometry" />
        </mxCell>
        <mxCell id="uKQU-L9ut1QwHJiRZmz_-42" value="&lt;span style=&quot;color: rgb(51 , 51 , 51) ; font-family: &amp;#34;helvetica&amp;#34; ; font-size: 12px ; font-style: normal ; font-weight: 400 ; letter-spacing: normal ; text-align: center ; text-indent: 0px ; text-transform: none ; word-spacing: 0px ; background-color: rgb(248 , 249 , 250) ; display: inline ; float: none&quot;&gt;存储服务&lt;/span&gt;" style="text;whiteSpace=wrap;html=1;" parent="sr8ndwjYwEoH3tyWyaKA-1" vertex="1">
          <mxGeometry x="17" y="-32" width="70" height="30" as="geometry" />
        </mxCell>
        <mxCell id="uKQU-L9ut1QwHJiRZmz_-44" value="" style="pointerEvents=1;shadow=0;dashed=0;html=1;strokeColor=none;fillColor=#505050;labelPosition=center;verticalLabelPosition=bottom;verticalAlign=top;outlineConnect=0;align=center;shape=mxgraph.office.servers.datacenter;" parent="sr8ndwjYwEoH3tyWyaKA-1" vertex="1">
          <mxGeometry x="242" y="130" width="53" height="53" as="geometry" />
        </mxCell>
        <mxCell id="uKQU-L9ut1QwHJiRZmz_-45" value="&lt;span style=&quot;color: rgb(0 , 0 , 0) ; font-family: &amp;#34;helvetica&amp;#34; ; font-size: 12px ; font-style: normal ; font-weight: 400 ; letter-spacing: normal ; text-align: center ; text-indent: 0px ; text-transform: none ; word-spacing: 0px ; background-color: rgb(248 , 249 , 250) ; display: inline ; float: none&quot;&gt;客户业务&lt;/span&gt;" style="text;whiteSpace=wrap;html=1;" parent="sr8ndwjYwEoH3tyWyaKA-1" vertex="1">
          <mxGeometry x="298" y="141.5" width="80" height="30" as="geometry" />
        </mxCell>
        <mxCell id="uKQU-L9ut1QwHJiRZmz_-46" value="异步任务系统" style="whiteSpace=wrap;html=1;fillColor=#d5e8d4;rounded=1;strokeColor=#82b366;" parent="sr8ndwjYwEoH3tyWyaKA-1" vertex="1">
          <mxGeometry x="313" y="324" width="120" height="33" as="geometry" />
        </mxCell>
        <mxCell id="uKQU-L9ut1QwHJiRZmz_-47" value="图片服务" style="whiteSpace=wrap;html=1;fillColor=#f8cecc;rounded=1;strokeColor=#b85450;" parent="sr8ndwjYwEoH3tyWyaKA-1" vertex="1">
          <mxGeometry x="137" y="446" width="80" height="40" as="geometry" />
        </mxCell>
        <mxCell id="uKQU-L9ut1QwHJiRZmz_-48" value="文档服务" style="whiteSpace=wrap;html=1;fillColor=#f8cecc;rounded=1;strokeColor=#b85450;" parent="sr8ndwjYwEoH3tyWyaKA-1" vertex="1">
          <mxGeometry x="234" y="446" width="80" height="40" as="geometry" />
        </mxCell>
        <mxCell id="uKQU-L9ut1QwHJiRZmz_-49" value="AI服务" style="whiteSpace=wrap;html=1;fillColor=#f8cecc;rounded=1;strokeColor=#b85450;" parent="sr8ndwjYwEoH3tyWyaKA-1" vertex="1">
          <mxGeometry x="351" y="446" width="80" height="40" as="geometry" />
        </mxCell>
        <mxCell id="uKQU-L9ut1QwHJiRZmz_-50" value="" style="endArrow=classic;html=1;" parent="sr8ndwjYwEoH3tyWyaKA-1" source="1cF8yq4eA-Xv76nk4kAs-15" target="uKQU-L9ut1QwHJiRZmz_-47" edge="1">
          <mxGeometry width="50" height="50" relative="1" as="geometry">
            <mxPoint x="264.39" y="312" as="sourcePoint" />
            <mxPoint x="264.31000000000006" y="392" as="targetPoint" />
          </mxGeometry>
        </mxCell>
        <mxCell id="uKQU-L9ut1QwHJiRZmz_-51" value="" style="endArrow=classic;html=1;exitX=0.5;exitY=1;exitDx=0;exitDy=0;entryX=0.5;entryY=0;entryDx=0;entryDy=0;" parent="sr8ndwjYwEoH3tyWyaKA-1" source="1cF8yq4eA-Xv76nk4kAs-15" target="uKQU-L9ut1QwHJiRZmz_-48" edge="1">
          <mxGeometry width="50" height="50" relative="1" as="geometry">
            <mxPoint x="293" y="344" as="sourcePoint" />
            <mxPoint x="210.67374999999993" y="452" as="targetPoint" />
          </mxGeometry>
        </mxCell>
        <mxCell id="uKQU-L9ut1QwHJiRZmz_-52" value="" style="endArrow=classic;html=1;entryX=0.5;entryY=0;entryDx=0;entryDy=0;" parent="sr8ndwjYwEoH3tyWyaKA-1" source="1cF8yq4eA-Xv76nk4kAs-15" target="uKQU-L9ut1QwHJiRZmz_-49" edge="1">
          <mxGeometry width="50" height="50" relative="1" as="geometry">
            <mxPoint x="303" y="364" as="sourcePoint" />
            <mxPoint x="217.0625" y="452" as="targetPoint" />
          </mxGeometry>
        </mxCell>
        <mxCell id="uKQU-L9ut1QwHJiRZmz_-53" value="" style="endArrow=classic;html=1;exitX=0.306;exitY=1.031;exitDx=0;exitDy=0;exitPerimeter=0;" parent="sr8ndwjYwEoH3tyWyaKA-1" source="uKQU-L9ut1QwHJiRZmz_-46" target="uKQU-L9ut1QwHJiRZmz_-47" edge="1">
          <mxGeometry width="50" height="50" relative="1" as="geometry">
            <mxPoint x="333" y="374" as="sourcePoint" />
            <mxPoint x="195.58823529411757" y="452" as="targetPoint" />
          </mxGeometry>
        </mxCell>
        <mxCell id="uKQU-L9ut1QwHJiRZmz_-54" value="" style="endArrow=classic;html=1;" parent="sr8ndwjYwEoH3tyWyaKA-1" target="uKQU-L9ut1QwHJiRZmz_-48" edge="1">
          <mxGeometry width="50" height="50" relative="1" as="geometry">
            <mxPoint x="373" y="358" as="sourcePoint" />
            <mxPoint x="216.36075949367114" y="452" as="targetPoint" />
          </mxGeometry>
        </mxCell>
        <mxCell id="uKQU-L9ut1QwHJiRZmz_-55" value="" style="endArrow=classic;html=1;entryX=0.5;entryY=0;entryDx=0;entryDy=0;" parent="sr8ndwjYwEoH3tyWyaKA-1" target="uKQU-L9ut1QwHJiRZmz_-49" edge="1">
          <mxGeometry width="50" height="50" relative="1" as="geometry">
            <mxPoint x="393" y="358" as="sourcePoint" />
            <mxPoint x="393" y="444" as="targetPoint" />
          </mxGeometry>
        </mxCell>
        <mxCell id="uKQU-L9ut1QwHJiRZmz_-58" value="&lt;span style=&quot;color: rgb(0 , 0 , 0) ; font-family: &amp;#34;helvetica&amp;#34; ; font-style: normal ; font-weight: 400 ; letter-spacing: normal ; text-align: center ; text-indent: 0px ; text-transform: none ; word-spacing: 0px ; background-color: rgb(248 , 249 , 250) ; display: inline ; float: none&quot;&gt;&lt;font style=&quot;font-size: 24px&quot;&gt;...&lt;/font&gt;&lt;/span&gt;" style="text;whiteSpace=wrap;html=1;" parent="sr8ndwjYwEoH3tyWyaKA-1" vertex="1">
          <mxGeometry x="321" y="446" width="20" height="40" as="geometry" />
        </mxCell>
        <mxCell id="uKQU-L9ut1QwHJiRZmz_-59" value="" style="endArrow=classic;html=1;entryX=0.635;entryY=-0.028;entryDx=0;entryDy=0;entryPerimeter=0;" parent="sr8ndwjYwEoH3tyWyaKA-1" edge="1">
          <mxGeometry width="50" height="50" relative="1" as="geometry">
            <mxPoint x="395" y="304" as="sourcePoint" />
            <mxPoint x="395.09000000000015" y="323.076" as="targetPoint" />
          </mxGeometry>
        </mxCell>
      </root>
    </mxGraphModel>
  </diagram>
  <diagram id="XuwrHGKEb-FSshHDWmSH" name="同步预览架构">
    <mxGraphModel dx="1707" dy="923" grid="0" gridSize="10" guides="1" tooltips="1" connect="1" arrows="1" fold="1" page="1" pageScale="1" pageWidth="827" pageHeight="1169" math="0" shadow="0">
      <root>
        <mxCell id="5XB-zujnhuzHfbpL0Umh-0" />
        <mxCell id="5XB-zujnhuzHfbpL0Umh-1" parent="5XB-zujnhuzHfbpL0Umh-0" />
        <mxCell id="WC8FOAtHXrDaa88kB_tp-0" value="CGI接入层" style="whiteSpace=wrap;html=1;fillColor=#dae8fc;rounded=1;strokeColor=#6c8ebf;" vertex="1" parent="5XB-zujnhuzHfbpL0Umh-1">
          <mxGeometry x="85" y="246" width="346" height="47" as="geometry" />
        </mxCell>
        <mxCell id="WC8FOAtHXrDaa88kB_tp-4" value="同步服务配置" style="whiteSpace=wrap;html=1;fillColor=#fff2cc;rounded=1;strokeColor=#d6b656;" vertex="1" parent="5XB-zujnhuzHfbpL0Umh-1">
          <mxGeometry x="218" y="283" width="80" height="20" as="geometry" />
        </mxCell>
        <mxCell id="WC8FOAtHXrDaa88kB_tp-6" value="" style="fontColor=#0066CC;verticalAlign=top;verticalLabelPosition=bottom;labelPosition=center;align=center;html=1;outlineConnect=0;fillColor=#CCCCCC;strokeColor=#6881B3;gradientColor=none;gradientDirection=north;strokeWidth=2;shape=mxgraph.networks.storage;" vertex="1" parent="5XB-zujnhuzHfbpL0Umh-1">
          <mxGeometry x="65" y="342" width="50" height="70" as="geometry" />
        </mxCell>
        <mxCell id="WC8FOAtHXrDaa88kB_tp-7" value="&lt;span style=&quot;color: rgb(0, 0, 0); font-family: helvetica; font-size: 12px; font-style: normal; font-weight: 400; letter-spacing: normal; text-align: center; text-indent: 0px; text-transform: none; word-spacing: 0px; background-color: rgb(248, 249, 250); display: inline; float: none;&quot;&gt;COS存储&lt;/span&gt;" style="text;whiteSpace=wrap;html=1;" vertex="1" parent="5XB-zujnhuzHfbpL0Umh-1">
          <mxGeometry x="65" y="416" width="60" height="30" as="geometry" />
        </mxCell>
        <mxCell id="WC8FOAtHXrDaa88kB_tp-8" value="" style="endArrow=classic;html=1;entryX=0.222;entryY=0;entryDx=0;entryDy=0;entryPerimeter=0;" edge="1" parent="5XB-zujnhuzHfbpL0Umh-1">
          <mxGeometry width="50" height="50" relative="1" as="geometry">
            <mxPoint x="271" y="166" as="sourcePoint" />
            <mxPoint x="270.9200000000001" y="246" as="targetPoint" />
          </mxGeometry>
        </mxCell>
        <mxCell id="WC8FOAtHXrDaa88kB_tp-9" value="&lt;div style=&quot;text-align: center&quot;&gt;&lt;font face=&quot;helvetica&quot;&gt;同步&lt;/font&gt;&lt;/div&gt;&lt;div style=&quot;text-align: center&quot;&gt;&lt;font face=&quot;helvetica&quot;&gt;处理接口&lt;/font&gt;&lt;/div&gt;" style="text;whiteSpace=wrap;html=1;" vertex="1" parent="5XB-zujnhuzHfbpL0Umh-1">
          <mxGeometry x="211" y="196" width="60" height="40" as="geometry" />
        </mxCell>
        <mxCell id="WC8FOAtHXrDaa88kB_tp-11" value="" style="pointerEvents=1;shadow=0;dashed=0;html=1;strokeColor=none;fillColor=#505050;labelPosition=center;verticalLabelPosition=bottom;verticalAlign=top;outlineConnect=0;align=center;shape=mxgraph.office.servers.datacenter;" vertex="1" parent="5XB-zujnhuzHfbpL0Umh-1">
          <mxGeometry x="240" y="121" width="53" height="53" as="geometry" />
        </mxCell>
        <mxCell id="WC8FOAtHXrDaa88kB_tp-12" value="&lt;span style=&quot;color: rgb(0 , 0 , 0) ; font-family: &amp;#34;helvetica&amp;#34; ; font-size: 12px ; font-style: normal ; font-weight: 400 ; letter-spacing: normal ; text-align: center ; text-indent: 0px ; text-transform: none ; word-spacing: 0px ; background-color: rgb(248 , 249 , 250) ; display: inline ; float: none&quot;&gt;客户业务&lt;/span&gt;" style="text;whiteSpace=wrap;html=1;" vertex="1" parent="5XB-zujnhuzHfbpL0Umh-1">
          <mxGeometry x="296" y="132.5" width="80" height="30" as="geometry" />
        </mxCell>
        <mxCell id="WC8FOAtHXrDaa88kB_tp-15" value="文档服务&lt;br&gt;接入模块" style="whiteSpace=wrap;html=1;fillColor=#f8cecc;rounded=1;strokeColor=#b85450;" vertex="1" parent="5XB-zujnhuzHfbpL0Umh-1">
          <mxGeometry x="218" y="358" width="80" height="40" as="geometry" />
        </mxCell>
        <mxCell id="WC8FOAtHXrDaa88kB_tp-18" value="" style="endArrow=classic;html=1;exitX=0.5;exitY=1;exitDx=0;exitDy=0;entryX=0.5;entryY=0;entryDx=0;entryDy=0;" edge="1" parent="5XB-zujnhuzHfbpL0Umh-1" source="WC8FOAtHXrDaa88kB_tp-4" target="WC8FOAtHXrDaa88kB_tp-15">
          <mxGeometry width="50" height="50" relative="1" as="geometry">
            <mxPoint x="291" y="335" as="sourcePoint" />
            <mxPoint x="208.67374999999993" y="443" as="targetPoint" />
          </mxGeometry>
        </mxCell>
        <mxCell id="KzHcAprrjLlFmMTL2Vzw-2" value="" style="endArrow=classic;html=1;fontColor=#000000;exitX=1;exitY=1;exitDx=0;exitDy=0;dashed=1;" edge="1" parent="5XB-zujnhuzHfbpL0Umh-1" source="WC8FOAtHXrDaa88kB_tp-4">
          <mxGeometry width="50" height="50" relative="1" as="geometry">
            <mxPoint x="459" y="381" as="sourcePoint" />
            <mxPoint x="509" y="303" as="targetPoint" />
          </mxGeometry>
        </mxCell>
        <mxCell id="KzHcAprrjLlFmMTL2Vzw-3" value="&lt;div&gt;&lt;span&gt;&lt;font face=&quot;helvetica&quot;&gt;路由配置&lt;/font&gt;&lt;/span&gt;&lt;/div&gt;&lt;div&gt;&lt;span&gt;&lt;font face=&quot;helvetica&quot;&gt;ci-process=doc-preview&amp;nbsp; &amp;nbsp;文档服务L5&lt;/font&gt;&lt;/span&gt;&lt;/div&gt;&lt;div&gt;&lt;span&gt;&lt;font face=&quot;helvetica&quot;&gt;ci-process=face-effect&amp;nbsp; &amp;nbsp; &amp;nbsp; AI服务&amp;nbsp; &amp;nbsp;L5&lt;/font&gt;&lt;/span&gt;&lt;/div&gt;&lt;div&gt;&lt;span&gt;&lt;font face=&quot;helvetica&quot;&gt;ci-process=recognition&amp;nbsp; &amp;nbsp; &amp;nbsp;审核服务L5&lt;/font&gt;&lt;/span&gt;&lt;/div&gt;" style="text;whiteSpace=wrap;html=1;align=left;" vertex="1" parent="5XB-zujnhuzHfbpL0Umh-1">
          <mxGeometry x="511" y="279" width="211" height="30" as="geometry" />
        </mxCell>
        <mxCell id="KzHcAprrjLlFmMTL2Vzw-4" value="" style="endArrow=classic;html=1;fontColor=#000000;exitX=1;exitY=1;exitDx=0;exitDy=0;dashed=1;" edge="1" parent="5XB-zujnhuzHfbpL0Umh-1" source="WC8FOAtHXrDaa88kB_tp-4">
          <mxGeometry width="50" height="50" relative="1" as="geometry">
            <mxPoint x="308" y="313" as="sourcePoint" />
            <mxPoint x="506" y="371" as="targetPoint" />
          </mxGeometry>
        </mxCell>
        <mxCell id="KzHcAprrjLlFmMTL2Vzw-5" value="&lt;div&gt;&lt;span&gt;&lt;font face=&quot;helvetica&quot;&gt;错误码配置&lt;/font&gt;&lt;/span&gt;&lt;/div&gt;&lt;div&gt;&lt;font face=&quot;helvetica&quot;&gt;-104&amp;nbsp; &amp;nbsp; &amp;nbsp; &amp;nbsp; 服务未开通&amp;nbsp; &amp;nbsp; 映射为FunctionNotEnabled&lt;/font&gt;&lt;/div&gt;&lt;div&gt;&lt;font face=&quot;helvetica&quot;&gt;-3006&amp;nbsp; &amp;nbsp; &amp;nbsp; 文档被加密&amp;nbsp; &amp;nbsp; 映射为FileEncrypted&lt;/font&gt;&lt;/div&gt;&lt;div&gt;&lt;font face=&quot;helvetica&quot;&gt;-3015&amp;nbsp; &amp;nbsp; &amp;nbsp; 页码不存在&amp;nbsp; &amp;nbsp; 映射为NoSuchPage&lt;/font&gt;&lt;/div&gt;" style="text;whiteSpace=wrap;html=1;align=left;" vertex="1" parent="5XB-zujnhuzHfbpL0Umh-1">
          <mxGeometry x="510" y="363" width="275" height="78" as="geometry" />
        </mxCell>
        <mxCell id="zw5DR3ge1xcyy_FpqnFG-0" value="图片处理模块" style="whiteSpace=wrap;html=1;fillColor=#fff2cc;rounded=1;strokeColor=#d6b656;" vertex="1" parent="5XB-zujnhuzHfbpL0Umh-1">
          <mxGeometry x="30" y="521" width="116" height="50" as="geometry" />
        </mxCell>
        <mxCell id="_DF5f95mb8bdESNmjEcR-0" value="" style="endArrow=classic;html=1;exitX=0;exitY=0.5;exitDx=0;exitDy=0;" edge="1" parent="5XB-zujnhuzHfbpL0Umh-1" source="WC8FOAtHXrDaa88kB_tp-15" target="WC8FOAtHXrDaa88kB_tp-6">
          <mxGeometry width="50" height="50" relative="1" as="geometry">
            <mxPoint x="268" y="313" as="sourcePoint" />
            <mxPoint x="268" y="392" as="targetPoint" />
          </mxGeometry>
        </mxCell>
        <mxCell id="_DF5f95mb8bdESNmjEcR-1" value="文档服务&lt;br&gt;转码模块" style="whiteSpace=wrap;html=1;fillColor=#f8cecc;rounded=1;strokeColor=#b85450;" vertex="1" parent="5XB-zujnhuzHfbpL0Umh-1">
          <mxGeometry x="218" y="469" width="80" height="40" as="geometry" />
        </mxCell>
        <mxCell id="_DF5f95mb8bdESNmjEcR-2" value="" style="aspect=fixed;html=1;points=[];align=center;image;fontSize=12;image=img/lib/mscae/Docker.svg;labelBackgroundColor=none;" vertex="1" parent="5XB-zujnhuzHfbpL0Umh-1">
          <mxGeometry x="187.88" y="511" width="140.24" height="115" as="geometry" />
        </mxCell>
        <mxCell id="_DF5f95mb8bdESNmjEcR-3" value="" style="endArrow=classic;html=1;exitX=0.5;exitY=1;exitDx=0;exitDy=0;" edge="1" parent="5XB-zujnhuzHfbpL0Umh-1" source="WC8FOAtHXrDaa88kB_tp-15" target="_DF5f95mb8bdESNmjEcR-1">
          <mxGeometry width="50" height="50" relative="1" as="geometry">
            <mxPoint x="268" y="313" as="sourcePoint" />
            <mxPoint x="268" y="368" as="targetPoint" />
          </mxGeometry>
        </mxCell>
        <mxCell id="_DF5f95mb8bdESNmjEcR-4" value="" style="endArrow=classic;html=1;exitX=0.5;exitY=1;exitDx=0;exitDy=0;entryX=0.5;entryY=0;entryDx=0;entryDy=0;" edge="1" parent="5XB-zujnhuzHfbpL0Umh-1" source="WC8FOAtHXrDaa88kB_tp-15" target="zw5DR3ge1xcyy_FpqnFG-0">
          <mxGeometry width="50" height="50" relative="1" as="geometry">
            <mxPoint x="268" y="408" as="sourcePoint" />
            <mxPoint x="268" y="479" as="targetPoint" />
          </mxGeometry>
        </mxCell>
        <mxCell id="_DF5f95mb8bdESNmjEcR-6" value="tdc缓存" style="whiteSpace=wrap;html=1;fillColor=#fff2cc;rounded=1;strokeColor=#d6b656;" vertex="1" parent="5XB-zujnhuzHfbpL0Umh-1">
          <mxGeometry x="336" y="353" width="101" height="50" as="geometry" />
        </mxCell>
        <mxCell id="_DF5f95mb8bdESNmjEcR-7" value="" style="endArrow=classic;html=1;exitX=1;exitY=0.5;exitDx=0;exitDy=0;entryX=0;entryY=0.5;entryDx=0;entryDy=0;" edge="1" parent="5XB-zujnhuzHfbpL0Umh-1" source="WC8FOAtHXrDaa88kB_tp-15" target="_DF5f95mb8bdESNmjEcR-6">
          <mxGeometry width="50" height="50" relative="1" as="geometry">
            <mxPoint x="228" y="388" as="sourcePoint" />
            <mxPoint x="125" y="387.1953125" as="targetPoint" />
          </mxGeometry>
        </mxCell>
      </root>
    </mxGraphModel>
  </diagram>
  <diagram id="3ZOrGYuBocCyV9SrTqI_" name="异步预览架构">
    <mxGraphModel dx="1707" dy="923" grid="0" gridSize="10" guides="1" tooltips="1" connect="1" arrows="1" fold="1" page="1" pageScale="1" pageWidth="827" pageHeight="1169" math="0" shadow="0">
      <root>
        <mxCell id="hoVFeAc2EoDn5N3kzw5v-0" />
        <mxCell id="hoVFeAc2EoDn5N3kzw5v-1" parent="hoVFeAc2EoDn5N3kzw5v-0" />
        <mxCell id="dGsqqwgGwpr3DBpgRc2Z-0" value="CGI接入层" style="whiteSpace=wrap;html=1;fillColor=#dae8fc;rounded=1;strokeColor=#6c8ebf;" vertex="1" parent="hoVFeAc2EoDn5N3kzw5v-1">
          <mxGeometry x="87" y="255" width="346" height="47" as="geometry" />
        </mxCell>
        <mxCell id="dGsqqwgGwpr3DBpgRc2Z-3" value="&lt;div style=&quot;text-align: center&quot;&gt;&lt;font face=&quot;helvetica&quot;&gt;异步&lt;/font&gt;&lt;/div&gt;&lt;div style=&quot;text-align: center&quot;&gt;&lt;font face=&quot;helvetica&quot;&gt;处理接口&lt;/font&gt;&lt;/div&gt;" style="text;whiteSpace=wrap;html=1;" vertex="1" parent="hoVFeAc2EoDn5N3kzw5v-1">
          <mxGeometry x="163" y="202" width="60" height="40" as="geometry" />
        </mxCell>
        <mxCell id="dGsqqwgGwpr3DBpgRc2Z-6" value="" style="fontColor=#0066CC;verticalAlign=top;verticalLabelPosition=bottom;labelPosition=center;align=center;html=1;outlineConnect=0;fillColor=#CCCCCC;strokeColor=#6881B3;gradientColor=none;gradientDirection=north;strokeWidth=2;shape=mxgraph.networks.storage;" vertex="1" parent="hoVFeAc2EoDn5N3kzw5v-1">
          <mxGeometry x="84" y="612" width="50" height="70" as="geometry" />
        </mxCell>
        <mxCell id="dGsqqwgGwpr3DBpgRc2Z-7" value="&lt;span style=&quot;color: rgb(0, 0, 0); font-family: helvetica; font-size: 12px; font-style: normal; font-weight: 400; letter-spacing: normal; text-align: center; text-indent: 0px; text-transform: none; word-spacing: 0px; background-color: rgb(248, 249, 250); display: inline; float: none;&quot;&gt;COS存储&lt;/span&gt;" style="text;whiteSpace=wrap;html=1;" vertex="1" parent="hoVFeAc2EoDn5N3kzw5v-1">
          <mxGeometry x="84" y="686" width="60" height="30" as="geometry" />
        </mxCell>
        <mxCell id="dGsqqwgGwpr3DBpgRc2Z-8" value="" style="endArrow=classic;html=1;entryX=0.5;entryY=0;entryDx=0;entryDy=0;" edge="1" parent="hoVFeAc2EoDn5N3kzw5v-1" source="dGsqqwgGwpr3DBpgRc2Z-11" target="dGsqqwgGwpr3DBpgRc2Z-0">
          <mxGeometry width="50" height="50" relative="1" as="geometry">
            <mxPoint x="273" y="175" as="sourcePoint" />
            <mxPoint x="272.9200000000001" y="255" as="targetPoint" />
          </mxGeometry>
        </mxCell>
        <mxCell id="dGsqqwgGwpr3DBpgRc2Z-11" value="" style="pointerEvents=1;shadow=0;dashed=0;html=1;strokeColor=none;fillColor=#505050;labelPosition=center;verticalLabelPosition=bottom;verticalAlign=top;outlineConnect=0;align=center;shape=mxgraph.office.servers.datacenter;" vertex="1" parent="hoVFeAc2EoDn5N3kzw5v-1">
          <mxGeometry x="233.5" y="164" width="53" height="53" as="geometry" />
        </mxCell>
        <mxCell id="dGsqqwgGwpr3DBpgRc2Z-12" value="&lt;span style=&quot;color: rgb(0 , 0 , 0) ; font-family: &amp;#34;helvetica&amp;#34; ; font-size: 12px ; font-style: normal ; font-weight: 400 ; letter-spacing: normal ; text-align: center ; text-indent: 0px ; text-transform: none ; word-spacing: 0px ; background-color: rgb(248 , 249 , 250) ; display: inline ; float: none&quot;&gt;客户业务&lt;/span&gt;" style="text;whiteSpace=wrap;html=1;" vertex="1" parent="hoVFeAc2EoDn5N3kzw5v-1">
          <mxGeometry x="298" y="175.5" width="80" height="30" as="geometry" />
        </mxCell>
        <mxCell id="dGsqqwgGwpr3DBpgRc2Z-13" value="任务管理" style="whiteSpace=wrap;html=1;fillColor=#d5e8d4;rounded=1;strokeColor=#82b366;" vertex="1" parent="hoVFeAc2EoDn5N3kzw5v-1">
          <mxGeometry x="200" y="331" width="120" height="33" as="geometry" />
        </mxCell>
        <mxCell id="dGsqqwgGwpr3DBpgRc2Z-20" value="" style="endArrow=classic;html=1;exitX=0;exitY=0.5;exitDx=0;exitDy=0;entryX=1;entryY=0.5;entryDx=0;entryDy=0;entryPerimeter=0;" edge="1" parent="hoVFeAc2EoDn5N3kzw5v-1" source="dGsqqwgGwpr3DBpgRc2Z-13" target="ozcPwRTV0NYY3XNbWs27-1">
          <mxGeometry width="50" height="50" relative="1" as="geometry">
            <mxPoint x="181" y="769" as="sourcePoint" />
            <mxPoint x="184.58823529411757" y="836" as="targetPoint" />
          </mxGeometry>
        </mxCell>
        <mxCell id="TnC1iqSmjKU4xOiJGOO3-0" value="配置db" style="shape=cylinder3;whiteSpace=wrap;html=1;boundedLbl=1;backgroundOutline=1;size=15;labelBackgroundColor=none;fontColor=#000000;align=center;" vertex="1" parent="hoVFeAc2EoDn5N3kzw5v-1">
          <mxGeometry x="489" y="314.25" width="60" height="66.5" as="geometry" />
        </mxCell>
        <mxCell id="TnC1iqSmjKU4xOiJGOO3-1" value="配置系统" style="whiteSpace=wrap;html=1;fillColor=#d5e8d4;rounded=1;strokeColor=#82b366;" vertex="1" parent="hoVFeAc2EoDn5N3kzw5v-1">
          <mxGeometry x="384" y="331" width="101" height="33" as="geometry" />
        </mxCell>
        <mxCell id="JLB6Tz4beH6JQoJmLwcP-0" value="" style="endArrow=classic;html=1;entryX=0.5;entryY=0;entryDx=0;entryDy=0;" edge="1" parent="hoVFeAc2EoDn5N3kzw5v-1" source="dGsqqwgGwpr3DBpgRc2Z-0" target="dGsqqwgGwpr3DBpgRc2Z-13">
          <mxGeometry width="50" height="50" relative="1" as="geometry">
            <mxPoint x="261.3" y="305" as="sourcePoint" />
            <mxPoint x="250.0037037037037" y="366" as="targetPoint" />
          </mxGeometry>
        </mxCell>
        <mxCell id="ozcPwRTV0NYY3XNbWs27-0" value="" style="endArrow=classic;html=1;exitX=1;exitY=0.5;exitDx=0;exitDy=0;entryX=0;entryY=0.5;entryDx=0;entryDy=0;" edge="1" parent="hoVFeAc2EoDn5N3kzw5v-1" source="dGsqqwgGwpr3DBpgRc2Z-13" target="TnC1iqSmjKU4xOiJGOO3-1">
          <mxGeometry width="50" height="50" relative="1" as="geometry">
            <mxPoint x="407.3" y="430" as="sourcePoint" />
            <mxPoint x="396.0037037037037" y="491" as="targetPoint" />
          </mxGeometry>
        </mxCell>
        <mxCell id="ozcPwRTV0NYY3XNbWs27-1" value="任务db" style="shape=cylinder3;whiteSpace=wrap;html=1;boundedLbl=1;backgroundOutline=1;size=15;labelBackgroundColor=none;fontColor=#000000;align=center;" vertex="1" parent="hoVFeAc2EoDn5N3kzw5v-1">
          <mxGeometry x="84" y="314.25" width="60" height="66.5" as="geometry" />
        </mxCell>
        <mxCell id="ozcPwRTV0NYY3XNbWs27-3" value="业务&lt;br&gt;a&lt;br&gt;队列" style="whiteSpace=wrap;html=1;fillColor=#d5e8d4;rounded=1;strokeColor=#82b366;" vertex="1" parent="hoVFeAc2EoDn5N3kzw5v-1">
          <mxGeometry x="206" y="378" width="24" height="74" as="geometry" />
        </mxCell>
        <mxCell id="ozcPwRTV0NYY3XNbWs27-4" value="业务&lt;br&gt;b&lt;br&gt;队列" style="whiteSpace=wrap;html=1;fillColor=#d5e8d4;rounded=1;strokeColor=#82b366;" vertex="1" parent="hoVFeAc2EoDn5N3kzw5v-1">
          <mxGeometry x="242" y="378" width="24" height="74" as="geometry" />
        </mxCell>
        <mxCell id="ozcPwRTV0NYY3XNbWs27-5" value="业务&lt;br&gt;m&lt;br&gt;队列" style="whiteSpace=wrap;html=1;fillColor=#d5e8d4;rounded=1;strokeColor=#82b366;" vertex="1" parent="hoVFeAc2EoDn5N3kzw5v-1">
          <mxGeometry x="296" y="378" width="24" height="74" as="geometry" />
        </mxCell>
        <mxCell id="ozcPwRTV0NYY3XNbWs27-6" value="异步任务处理模块" style="whiteSpace=wrap;html=1;fillColor=#d5e8d4;rounded=1;strokeColor=#82b366;" vertex="1" parent="hoVFeAc2EoDn5N3kzw5v-1">
          <mxGeometry x="200" y="568" width="120" height="33" as="geometry" />
        </mxCell>
        <mxCell id="kfKyI9R4KhdZ4A4D6yx8-0" value="文档服务&lt;br&gt;接入模块" style="whiteSpace=wrap;html=1;fillColor=#f8cecc;rounded=1;strokeColor=#b85450;" vertex="1" parent="hoVFeAc2EoDn5N3kzw5v-1">
          <mxGeometry x="223" y="626" width="80" height="40" as="geometry" />
        </mxCell>
        <mxCell id="kfKyI9R4KhdZ4A4D6yx8-1" value="kafka" style="whiteSpace=wrap;html=1;fillColor=#d5e8d4;rounded=1;strokeColor=#82b366;" vertex="1" parent="hoVFeAc2EoDn5N3kzw5v-1">
          <mxGeometry x="360" y="422" width="37" height="74" as="geometry" />
        </mxCell>
        <mxCell id="HJZNTfBJEYl2yLmIhF8j-0" value="旁路任务监控模块" style="whiteSpace=wrap;html=1;fillColor=#fff2cc;rounded=1;strokeColor=#d6b656;" vertex="1" parent="hoVFeAc2EoDn5N3kzw5v-1">
          <mxGeometry x="56" y="407" width="116" height="50" as="geometry" />
        </mxCell>
        <mxCell id="HJZNTfBJEYl2yLmIhF8j-1" value="" style="endArrow=classic;html=1;entryX=0.5;entryY=1;entryDx=0;entryDy=0;entryPerimeter=0;" edge="1" parent="hoVFeAc2EoDn5N3kzw5v-1" source="HJZNTfBJEYl2yLmIhF8j-0" target="ozcPwRTV0NYY3XNbWs27-1">
          <mxGeometry width="50" height="50" relative="1" as="geometry">
            <mxPoint x="210.00000000000023" y="357.5" as="sourcePoint" />
            <mxPoint x="154" y="357.5000000000002" as="targetPoint" />
          </mxGeometry>
        </mxCell>
        <mxCell id="HJZNTfBJEYl2yLmIhF8j-2" value="" style="endArrow=classic;html=1;entryX=0;entryY=1;entryDx=0;entryDy=0;exitX=1;exitY=0.5;exitDx=0;exitDy=0;" edge="1" parent="hoVFeAc2EoDn5N3kzw5v-1" source="HJZNTfBJEYl2yLmIhF8j-0" target="dGsqqwgGwpr3DBpgRc2Z-13">
          <mxGeometry width="50" height="50" relative="1" as="geometry">
            <mxPoint x="124" y="417" as="sourcePoint" />
            <mxPoint x="124" y="390.75" as="targetPoint" />
          </mxGeometry>
        </mxCell>
        <mxCell id="SvcCjCY_km9Kn8CfhF9W-0" value="&lt;span style=&quot;color: rgb(0 , 0 , 0) ; font-family: &amp;#34;helvetica&amp;#34; ; font-style: normal ; font-weight: 400 ; letter-spacing: normal ; text-align: center ; text-indent: 0px ; text-transform: none ; word-spacing: 0px ; background-color: rgb(248 , 249 , 250) ; display: inline ; float: none&quot;&gt;&lt;font style=&quot;font-size: 24px&quot;&gt;...&lt;/font&gt;&lt;/span&gt;" style="text;whiteSpace=wrap;html=1;" vertex="1" parent="hoVFeAc2EoDn5N3kzw5v-1">
          <mxGeometry x="269" y="390" width="20" height="40" as="geometry" />
        </mxCell>
        <mxCell id="SvcCjCY_km9Kn8CfhF9W-1" value="优先级队列0" style="whiteSpace=wrap;html=1;fillColor=#d5e8d4;rounded=1;strokeColor=#82b366;" vertex="1" parent="hoVFeAc2EoDn5N3kzw5v-1">
          <mxGeometry x="187.5" y="482" width="35" height="70" as="geometry" />
        </mxCell>
        <mxCell id="SvcCjCY_km9Kn8CfhF9W-4" value="&lt;span style=&quot;color: rgb(0 , 0 , 0) ; font-family: &amp;#34;helvetica&amp;#34; ; font-style: normal ; font-weight: 400 ; letter-spacing: normal ; text-align: center ; text-indent: 0px ; text-transform: none ; word-spacing: 0px ; background-color: rgb(248 , 249 , 250) ; display: inline ; float: none&quot;&gt;&lt;font style=&quot;font-size: 24px&quot;&gt;...&lt;/font&gt;&lt;/span&gt;" style="text;whiteSpace=wrap;html=1;" vertex="1" parent="hoVFeAc2EoDn5N3kzw5v-1">
          <mxGeometry x="278.5" y="494" width="20" height="48" as="geometry" />
        </mxCell>
        <mxCell id="SvcCjCY_km9Kn8CfhF9W-7" value="优先级队列1" style="whiteSpace=wrap;html=1;fillColor=#d5e8d4;rounded=1;strokeColor=#82b366;" vertex="1" parent="hoVFeAc2EoDn5N3kzw5v-1">
          <mxGeometry x="237.5" y="482" width="35" height="70" as="geometry" />
        </mxCell>
        <mxCell id="SvcCjCY_km9Kn8CfhF9W-8" value="优先级队列n" style="whiteSpace=wrap;html=1;fillColor=#d5e8d4;rounded=1;strokeColor=#82b366;" vertex="1" parent="hoVFeAc2EoDn5N3kzw5v-1">
          <mxGeometry x="303.5" y="480" width="35" height="70" as="geometry" />
        </mxCell>
        <mxCell id="MhW81asTFpVRsEwruTgs-0" value="图片处理模块" style="whiteSpace=wrap;html=1;fillColor=#fff2cc;rounded=1;strokeColor=#d6b656;" vertex="1" parent="hoVFeAc2EoDn5N3kzw5v-1">
          <mxGeometry x="51" y="731" width="116" height="50" as="geometry" />
        </mxCell>
        <mxCell id="MhW81asTFpVRsEwruTgs-1" value="文档服务&lt;br&gt;转码模块" style="whiteSpace=wrap;html=1;fillColor=#f8cecc;rounded=1;strokeColor=#b85450;" vertex="1" parent="hoVFeAc2EoDn5N3kzw5v-1">
          <mxGeometry x="223" y="691" width="80" height="40" as="geometry" />
        </mxCell>
        <mxCell id="MhW81asTFpVRsEwruTgs-2" value="" style="aspect=fixed;html=1;points=[];align=center;image;fontSize=12;image=img/lib/mscae/Docker.svg;labelBackgroundColor=none;" vertex="1" parent="hoVFeAc2EoDn5N3kzw5v-1">
          <mxGeometry x="192.88" y="733" width="140.24" height="115" as="geometry" />
        </mxCell>
        <mxCell id="MhW81asTFpVRsEwruTgs-3" value="" style="endArrow=classic;html=1;entryX=0.5;entryY=1;entryDx=0;entryDy=0;exitX=1;exitY=0.5;exitDx=0;exitDy=0;" edge="1" parent="hoVFeAc2EoDn5N3kzw5v-1" source="ozcPwRTV0NYY3XNbWs27-6" target="kfKyI9R4KhdZ4A4D6yx8-1">
          <mxGeometry width="50" height="50" relative="1" as="geometry">
            <mxPoint x="399" y="567" as="sourcePoint" />
            <mxPoint x="210.00000000000023" y="374" as="targetPoint" />
            <Array as="points">
              <mxPoint x="379" y="585" />
            </Array>
          </mxGeometry>
        </mxCell>
        <mxCell id="MhW81asTFpVRsEwruTgs-5" value="" style="endArrow=classic;html=1;exitX=0.5;exitY=0;exitDx=0;exitDy=0;entryX=1;entryY=0.5;entryDx=0;entryDy=0;entryPerimeter=0;" edge="1" parent="hoVFeAc2EoDn5N3kzw5v-1" source="kfKyI9R4KhdZ4A4D6yx8-1">
          <mxGeometry width="50" height="50" relative="1" as="geometry">
            <mxPoint x="373.0000000000002" y="361" as="sourcePoint" />
            <mxPoint x="317" y="361.0000000000002" as="targetPoint" />
            <Array as="points">
              <mxPoint x="379" y="361" />
            </Array>
          </mxGeometry>
        </mxCell>
        <mxCell id="MhW81asTFpVRsEwruTgs-6" value="" style="endArrow=classic;html=1;" edge="1" parent="hoVFeAc2EoDn5N3kzw5v-1">
          <mxGeometry width="50" height="50" relative="1" as="geometry">
            <mxPoint x="261.58" y="601" as="sourcePoint" />
            <mxPoint x="262" y="628" as="targetPoint" />
          </mxGeometry>
        </mxCell>
        <mxCell id="MhW81asTFpVRsEwruTgs-7" value="" style="endArrow=classic;html=1;exitX=0;exitY=0.5;exitDx=0;exitDy=0;" edge="1" parent="hoVFeAc2EoDn5N3kzw5v-1" source="kfKyI9R4KhdZ4A4D6yx8-0" target="dGsqqwgGwpr3DBpgRc2Z-6">
          <mxGeometry width="50" height="50" relative="1" as="geometry">
            <mxPoint x="200" y="653" as="sourcePoint" />
            <mxPoint x="200" y="719" as="targetPoint" />
          </mxGeometry>
        </mxCell>
        <mxCell id="MhW81asTFpVRsEwruTgs-8" value="" style="endArrow=classic;html=1;" edge="1" parent="hoVFeAc2EoDn5N3kzw5v-1" source="kfKyI9R4KhdZ4A4D6yx8-0" target="MhW81asTFpVRsEwruTgs-1">
          <mxGeometry width="50" height="50" relative="1" as="geometry">
            <mxPoint x="564" y="625" as="sourcePoint" />
            <mxPoint x="564" y="691" as="targetPoint" />
          </mxGeometry>
        </mxCell>
        <mxCell id="wWMA9g4nEBH2a4Gc5xv8-0" value="文档服务&lt;br&gt;转码模块" style="whiteSpace=wrap;html=1;fillColor=#f8cecc;rounded=1;strokeColor=#b85450;" vertex="1" parent="hoVFeAc2EoDn5N3kzw5v-1">
          <mxGeometry x="371.12" y="691" width="80" height="40" as="geometry" />
        </mxCell>
        <mxCell id="wWMA9g4nEBH2a4Gc5xv8-1" value="" style="aspect=fixed;html=1;points=[];align=center;image;fontSize=12;image=img/lib/mscae/Docker.svg;labelBackgroundColor=none;" vertex="1" parent="hoVFeAc2EoDn5N3kzw5v-1">
          <mxGeometry x="341" y="733" width="140.24" height="115" as="geometry" />
        </mxCell>
        <mxCell id="haja_alviNDGMxWqf5A1-0" value="文档服务&lt;br&gt;转码模块" style="whiteSpace=wrap;html=1;fillColor=#f8cecc;rounded=1;strokeColor=#b85450;" vertex="1" parent="hoVFeAc2EoDn5N3kzw5v-1">
          <mxGeometry x="521.12" y="691" width="80" height="40" as="geometry" />
        </mxCell>
        <mxCell id="haja_alviNDGMxWqf5A1-1" value="" style="aspect=fixed;html=1;points=[];align=center;image;fontSize=12;image=img/lib/mscae/Docker.svg;labelBackgroundColor=none;" vertex="1" parent="hoVFeAc2EoDn5N3kzw5v-1">
          <mxGeometry x="491" y="733" width="140.24" height="115" as="geometry" />
        </mxCell>
        <mxCell id="haja_alviNDGMxWqf5A1-2" value="" style="endArrow=classic;html=1;exitX=0.75;exitY=1;exitDx=0;exitDy=0;entryX=0.5;entryY=0;entryDx=0;entryDy=0;" edge="1" parent="hoVFeAc2EoDn5N3kzw5v-1" source="kfKyI9R4KhdZ4A4D6yx8-0" target="wWMA9g4nEBH2a4Gc5xv8-0">
          <mxGeometry width="50" height="50" relative="1" as="geometry">
            <mxPoint x="273" y="676" as="sourcePoint" />
            <mxPoint x="273" y="701" as="targetPoint" />
          </mxGeometry>
        </mxCell>
        <mxCell id="haja_alviNDGMxWqf5A1-3" value="" style="endArrow=classic;html=1;exitX=1;exitY=0.75;exitDx=0;exitDy=0;entryX=0.5;entryY=0;entryDx=0;entryDy=0;" edge="1" parent="hoVFeAc2EoDn5N3kzw5v-1" source="kfKyI9R4KhdZ4A4D6yx8-0" target="haja_alviNDGMxWqf5A1-0">
          <mxGeometry width="50" height="50" relative="1" as="geometry">
            <mxPoint x="303" y="648" as="sourcePoint" />
            <mxPoint x="431.1199999999999" y="673" as="targetPoint" />
          </mxGeometry>
        </mxCell>
        <mxCell id="eRirvaFqwB0AVL2RBM66-0" value="" style="endArrow=classic;html=1;exitX=0;exitY=0.75;exitDx=0;exitDy=0;entryX=0.5;entryY=0;entryDx=0;entryDy=0;" edge="1" parent="hoVFeAc2EoDn5N3kzw5v-1" source="kfKyI9R4KhdZ4A4D6yx8-0" target="MhW81asTFpVRsEwruTgs-0">
          <mxGeometry width="50" height="50" relative="1" as="geometry">
            <mxPoint x="233" y="656" as="sourcePoint" />
            <mxPoint x="144" y="656.780701754386" as="targetPoint" />
          </mxGeometry>
        </mxCell>
        <mxCell id="G7vGFn1DuUf1GFiq7_n8-0" value="&lt;span style=&quot;color: rgb(0 , 0 , 0) ; font-family: &amp;#34;helvetica&amp;#34; ; font-style: normal ; font-weight: 400 ; letter-spacing: normal ; text-align: center ; text-indent: 0px ; text-transform: none ; word-spacing: 0px ; background-color: rgb(248 , 249 , 250) ; display: inline ; float: none&quot;&gt;&lt;font style=&quot;font-size: 24px&quot;&gt;...&lt;/font&gt;&lt;/span&gt;" style="text;whiteSpace=wrap;html=1;" vertex="1" parent="hoVFeAc2EoDn5N3kzw5v-1">
          <mxGeometry x="475" y="691" width="20" height="48" as="geometry" />
        </mxCell>
        <mxCell id="VtDRNpCTtqmiHXRcfGFI-0" value="CGI接入层" style="whiteSpace=wrap;html=1;fillColor=#dae8fc;rounded=1;strokeColor=#6c8ebf;" vertex="1" parent="hoVFeAc2EoDn5N3kzw5v-1">
          <mxGeometry x="832" y="260" width="346" height="47" as="geometry" />
        </mxCell>
        <mxCell id="VtDRNpCTtqmiHXRcfGFI-1" value="&lt;div style=&quot;text-align: center&quot;&gt;&lt;font face=&quot;helvetica&quot;&gt;异步&lt;/font&gt;&lt;/div&gt;&lt;div style=&quot;text-align: center&quot;&gt;&lt;font face=&quot;helvetica&quot;&gt;处理接口&lt;/font&gt;&lt;/div&gt;" style="text;whiteSpace=wrap;html=1;" vertex="1" parent="hoVFeAc2EoDn5N3kzw5v-1">
          <mxGeometry x="908" y="207" width="60" height="40" as="geometry" />
        </mxCell>
        <mxCell id="VtDRNpCTtqmiHXRcfGFI-2" value="" style="fontColor=#0066CC;verticalAlign=top;verticalLabelPosition=bottom;labelPosition=center;align=center;html=1;outlineConnect=0;fillColor=#CCCCCC;strokeColor=#6881B3;gradientColor=none;gradientDirection=north;strokeWidth=2;shape=mxgraph.networks.storage;" vertex="1" parent="hoVFeAc2EoDn5N3kzw5v-1">
          <mxGeometry x="829" y="617" width="50" height="70" as="geometry" />
        </mxCell>
        <mxCell id="VtDRNpCTtqmiHXRcfGFI-3" value="&lt;span style=&quot;color: rgb(0, 0, 0); font-family: helvetica; font-size: 12px; font-style: normal; font-weight: 400; letter-spacing: normal; text-align: center; text-indent: 0px; text-transform: none; word-spacing: 0px; background-color: rgb(248, 249, 250); display: inline; float: none;&quot;&gt;COS存储&lt;/span&gt;" style="text;whiteSpace=wrap;html=1;" vertex="1" parent="hoVFeAc2EoDn5N3kzw5v-1">
          <mxGeometry x="829" y="691" width="60" height="30" as="geometry" />
        </mxCell>
        <mxCell id="VtDRNpCTtqmiHXRcfGFI-4" value="" style="endArrow=classic;html=1;entryX=0.5;entryY=0;entryDx=0;entryDy=0;" edge="1" parent="hoVFeAc2EoDn5N3kzw5v-1" source="VtDRNpCTtqmiHXRcfGFI-5" target="VtDRNpCTtqmiHXRcfGFI-0">
          <mxGeometry width="50" height="50" relative="1" as="geometry">
            <mxPoint x="1018" y="180" as="sourcePoint" />
            <mxPoint x="1017.9200000000001" y="260" as="targetPoint" />
          </mxGeometry>
        </mxCell>
        <mxCell id="VtDRNpCTtqmiHXRcfGFI-5" value="" style="pointerEvents=1;shadow=0;dashed=0;html=1;strokeColor=none;fillColor=#505050;labelPosition=center;verticalLabelPosition=bottom;verticalAlign=top;outlineConnect=0;align=center;shape=mxgraph.office.servers.datacenter;" vertex="1" parent="hoVFeAc2EoDn5N3kzw5v-1">
          <mxGeometry x="978.5" y="169" width="53" height="53" as="geometry" />
        </mxCell>
        <mxCell id="VtDRNpCTtqmiHXRcfGFI-6" value="&lt;span style=&quot;color: rgb(0 , 0 , 0) ; font-family: &amp;#34;helvetica&amp;#34; ; font-size: 12px ; font-style: normal ; font-weight: 400 ; letter-spacing: normal ; text-align: center ; text-indent: 0px ; text-transform: none ; word-spacing: 0px ; background-color: rgb(248 , 249 , 250) ; display: inline ; float: none&quot;&gt;客户业务&lt;/span&gt;" style="text;whiteSpace=wrap;html=1;" vertex="1" parent="hoVFeAc2EoDn5N3kzw5v-1">
          <mxGeometry x="1043" y="180.5" width="80" height="30" as="geometry" />
        </mxCell>
        <mxCell id="VtDRNpCTtqmiHXRcfGFI-7" value="任务接入模块" style="whiteSpace=wrap;html=1;fillColor=#d5e8d4;rounded=1;strokeColor=#82b366;" vertex="1" parent="hoVFeAc2EoDn5N3kzw5v-1">
          <mxGeometry x="945" y="336" width="120" height="33" as="geometry" />
        </mxCell>
        <mxCell id="VtDRNpCTtqmiHXRcfGFI-8" value="" style="endArrow=classic;html=1;exitX=0;exitY=0.5;exitDx=0;exitDy=0;entryX=1;entryY=0.5;entryDx=0;entryDy=0;entryPerimeter=0;" edge="1" parent="hoVFeAc2EoDn5N3kzw5v-1" source="VtDRNpCTtqmiHXRcfGFI-7" target="VtDRNpCTtqmiHXRcfGFI-13">
          <mxGeometry width="50" height="50" relative="1" as="geometry">
            <mxPoint x="926" y="774" as="sourcePoint" />
            <mxPoint x="929.5882352941176" y="841" as="targetPoint" />
          </mxGeometry>
        </mxCell>
        <mxCell id="VtDRNpCTtqmiHXRcfGFI-9" value="配置db" style="shape=cylinder3;whiteSpace=wrap;html=1;boundedLbl=1;backgroundOutline=1;size=15;labelBackgroundColor=none;fontColor=#000000;align=center;" vertex="1" parent="hoVFeAc2EoDn5N3kzw5v-1">
          <mxGeometry x="1234" y="319.25" width="60" height="66.5" as="geometry" />
        </mxCell>
        <mxCell id="VtDRNpCTtqmiHXRcfGFI-10" value="配置系统" style="whiteSpace=wrap;html=1;fillColor=#d5e8d4;rounded=1;strokeColor=#82b366;" vertex="1" parent="hoVFeAc2EoDn5N3kzw5v-1">
          <mxGeometry x="1129" y="336" width="101" height="33" as="geometry" />
        </mxCell>
        <mxCell id="VtDRNpCTtqmiHXRcfGFI-11" value="" style="endArrow=classic;html=1;entryX=0.5;entryY=0;entryDx=0;entryDy=0;" edge="1" parent="hoVFeAc2EoDn5N3kzw5v-1" source="VtDRNpCTtqmiHXRcfGFI-0" target="VtDRNpCTtqmiHXRcfGFI-7">
          <mxGeometry width="50" height="50" relative="1" as="geometry">
            <mxPoint x="1006.3" y="310" as="sourcePoint" />
            <mxPoint x="995.0037037037036" y="371" as="targetPoint" />
          </mxGeometry>
        </mxCell>
        <mxCell id="VtDRNpCTtqmiHXRcfGFI-12" value="" style="endArrow=classic;html=1;exitX=1;exitY=0.5;exitDx=0;exitDy=0;entryX=0;entryY=0.5;entryDx=0;entryDy=0;" edge="1" parent="hoVFeAc2EoDn5N3kzw5v-1" source="VtDRNpCTtqmiHXRcfGFI-7" target="VtDRNpCTtqmiHXRcfGFI-10">
          <mxGeometry width="50" height="50" relative="1" as="geometry">
            <mxPoint x="1152.3" y="435" as="sourcePoint" />
            <mxPoint x="1141.0037037037036" y="496" as="targetPoint" />
          </mxGeometry>
        </mxCell>
        <mxCell id="VtDRNpCTtqmiHXRcfGFI-13" value="任务db" style="shape=cylinder3;whiteSpace=wrap;html=1;boundedLbl=1;backgroundOutline=1;size=15;labelBackgroundColor=none;fontColor=#000000;align=center;" vertex="1" parent="hoVFeAc2EoDn5N3kzw5v-1">
          <mxGeometry x="829" y="319.25" width="60" height="66.5" as="geometry" />
        </mxCell>
        <mxCell id="VtDRNpCTtqmiHXRcfGFI-14" value="业务&lt;br&gt;a&lt;br&gt;队列" style="whiteSpace=wrap;html=1;fillColor=#d5e8d4;rounded=1;strokeColor=#82b366;" vertex="1" parent="hoVFeAc2EoDn5N3kzw5v-1">
          <mxGeometry x="951" y="383" width="24" height="74" as="geometry" />
        </mxCell>
        <mxCell id="VtDRNpCTtqmiHXRcfGFI-15" value="业务&lt;br&gt;b&lt;br&gt;队列" style="whiteSpace=wrap;html=1;fillColor=#d5e8d4;rounded=1;strokeColor=#82b366;" vertex="1" parent="hoVFeAc2EoDn5N3kzw5v-1">
          <mxGeometry x="987" y="383" width="24" height="74" as="geometry" />
        </mxCell>
        <mxCell id="VtDRNpCTtqmiHXRcfGFI-16" value="业务&lt;br&gt;m&lt;br&gt;队列" style="whiteSpace=wrap;html=1;fillColor=#d5e8d4;rounded=1;strokeColor=#82b366;" vertex="1" parent="hoVFeAc2EoDn5N3kzw5v-1">
          <mxGeometry x="1041" y="383" width="24" height="74" as="geometry" />
        </mxCell>
        <mxCell id="VtDRNpCTtqmiHXRcfGFI-17" value="任务消费模块" style="whiteSpace=wrap;html=1;fillColor=#d5e8d4;rounded=1;strokeColor=#82b366;" vertex="1" parent="hoVFeAc2EoDn5N3kzw5v-1">
          <mxGeometry x="945" y="573" width="120" height="33" as="geometry" />
        </mxCell>
        <mxCell id="VtDRNpCTtqmiHXRcfGFI-18" value="文档服务&lt;br&gt;接入模块" style="whiteSpace=wrap;html=1;fillColor=#f8cecc;rounded=1;strokeColor=#b85450;" vertex="1" parent="hoVFeAc2EoDn5N3kzw5v-1">
          <mxGeometry x="968" y="631" width="80" height="40" as="geometry" />
        </mxCell>
        <mxCell id="VtDRNpCTtqmiHXRcfGFI-19" value="kafka" style="whiteSpace=wrap;html=1;fillColor=#d5e8d4;rounded=1;strokeColor=#82b366;" vertex="1" parent="hoVFeAc2EoDn5N3kzw5v-1">
          <mxGeometry x="1105" y="427" width="37" height="74" as="geometry" />
        </mxCell>
        <mxCell id="VtDRNpCTtqmiHXRcfGFI-20" value="旁路任务监控模块" style="whiteSpace=wrap;html=1;fillColor=#fff2cc;rounded=1;strokeColor=#d6b656;" vertex="1" parent="hoVFeAc2EoDn5N3kzw5v-1">
          <mxGeometry x="801" y="412" width="116" height="50" as="geometry" />
        </mxCell>
        <mxCell id="VtDRNpCTtqmiHXRcfGFI-21" value="" style="endArrow=classic;html=1;entryX=0.5;entryY=1;entryDx=0;entryDy=0;entryPerimeter=0;" edge="1" parent="hoVFeAc2EoDn5N3kzw5v-1" source="VtDRNpCTtqmiHXRcfGFI-20" target="VtDRNpCTtqmiHXRcfGFI-13">
          <mxGeometry width="50" height="50" relative="1" as="geometry">
            <mxPoint x="955.0000000000002" y="362.5" as="sourcePoint" />
            <mxPoint x="899" y="362.5000000000002" as="targetPoint" />
          </mxGeometry>
        </mxCell>
        <mxCell id="VtDRNpCTtqmiHXRcfGFI-22" value="" style="endArrow=classic;html=1;entryX=0;entryY=1;entryDx=0;entryDy=0;exitX=1;exitY=0.5;exitDx=0;exitDy=0;" edge="1" parent="hoVFeAc2EoDn5N3kzw5v-1" source="VtDRNpCTtqmiHXRcfGFI-20" target="VtDRNpCTtqmiHXRcfGFI-7">
          <mxGeometry width="50" height="50" relative="1" as="geometry">
            <mxPoint x="869" y="422" as="sourcePoint" />
            <mxPoint x="869" y="395.75" as="targetPoint" />
          </mxGeometry>
        </mxCell>
        <mxCell id="VtDRNpCTtqmiHXRcfGFI-23" value="&lt;span style=&quot;color: rgb(0 , 0 , 0) ; font-family: &amp;#34;helvetica&amp;#34; ; font-style: normal ; font-weight: 400 ; letter-spacing: normal ; text-align: center ; text-indent: 0px ; text-transform: none ; word-spacing: 0px ; background-color: rgb(248 , 249 , 250) ; display: inline ; float: none&quot;&gt;&lt;font style=&quot;font-size: 24px&quot;&gt;...&lt;/font&gt;&lt;/span&gt;" style="text;whiteSpace=wrap;html=1;" vertex="1" parent="hoVFeAc2EoDn5N3kzw5v-1">
          <mxGeometry x="1014" y="395" width="20" height="40" as="geometry" />
        </mxCell>
        <mxCell id="VtDRNpCTtqmiHXRcfGFI-24" value="优先级队列0" style="whiteSpace=wrap;html=1;fillColor=#d5e8d4;rounded=1;strokeColor=#82b366;" vertex="1" parent="hoVFeAc2EoDn5N3kzw5v-1">
          <mxGeometry x="932.5" y="487" width="35" height="70" as="geometry" />
        </mxCell>
        <mxCell id="VtDRNpCTtqmiHXRcfGFI-25" value="&lt;span style=&quot;color: rgb(0 , 0 , 0) ; font-family: &amp;#34;helvetica&amp;#34; ; font-style: normal ; font-weight: 400 ; letter-spacing: normal ; text-align: center ; text-indent: 0px ; text-transform: none ; word-spacing: 0px ; background-color: rgb(248 , 249 , 250) ; display: inline ; float: none&quot;&gt;&lt;font style=&quot;font-size: 24px&quot;&gt;...&lt;/font&gt;&lt;/span&gt;" style="text;whiteSpace=wrap;html=1;" vertex="1" parent="hoVFeAc2EoDn5N3kzw5v-1">
          <mxGeometry x="1023.5" y="499" width="20" height="48" as="geometry" />
        </mxCell>
        <mxCell id="VtDRNpCTtqmiHXRcfGFI-26" value="优先级队列1" style="whiteSpace=wrap;html=1;fillColor=#d5e8d4;rounded=1;strokeColor=#82b366;" vertex="1" parent="hoVFeAc2EoDn5N3kzw5v-1">
          <mxGeometry x="982.5" y="487" width="35" height="70" as="geometry" />
        </mxCell>
        <mxCell id="VtDRNpCTtqmiHXRcfGFI-27" value="优先级队列n" style="whiteSpace=wrap;html=1;fillColor=#d5e8d4;rounded=1;strokeColor=#82b366;" vertex="1" parent="hoVFeAc2EoDn5N3kzw5v-1">
          <mxGeometry x="1048.5" y="485" width="35" height="70" as="geometry" />
        </mxCell>
        <mxCell id="VtDRNpCTtqmiHXRcfGFI-28" value="图片处理模块" style="whiteSpace=wrap;html=1;fillColor=#fff2cc;rounded=1;strokeColor=#d6b656;" vertex="1" parent="hoVFeAc2EoDn5N3kzw5v-1">
          <mxGeometry x="796" y="736" width="116" height="50" as="geometry" />
        </mxCell>
        <mxCell id="VtDRNpCTtqmiHXRcfGFI-29" value="文档服务&lt;br&gt;转码模块" style="whiteSpace=wrap;html=1;fillColor=#f8cecc;rounded=1;strokeColor=#b85450;" vertex="1" parent="hoVFeAc2EoDn5N3kzw5v-1">
          <mxGeometry x="968" y="696" width="80" height="40" as="geometry" />
        </mxCell>
        <mxCell id="VtDRNpCTtqmiHXRcfGFI-30" value="" style="aspect=fixed;html=1;points=[];align=center;image;fontSize=12;image=img/lib/mscae/Docker.svg;labelBackgroundColor=none;" vertex="1" parent="hoVFeAc2EoDn5N3kzw5v-1">
          <mxGeometry x="937.88" y="738" width="140.24" height="115" as="geometry" />
        </mxCell>
        <mxCell id="VtDRNpCTtqmiHXRcfGFI-31" value="" style="endArrow=classic;html=1;entryX=0.5;entryY=1;entryDx=0;entryDy=0;exitX=1;exitY=0.5;exitDx=0;exitDy=0;" edge="1" parent="hoVFeAc2EoDn5N3kzw5v-1" source="VtDRNpCTtqmiHXRcfGFI-17" target="VtDRNpCTtqmiHXRcfGFI-19">
          <mxGeometry width="50" height="50" relative="1" as="geometry">
            <mxPoint x="1144" y="572" as="sourcePoint" />
            <mxPoint x="955.0000000000002" y="379" as="targetPoint" />
            <Array as="points">
              <mxPoint x="1124" y="590" />
            </Array>
          </mxGeometry>
        </mxCell>
        <mxCell id="VtDRNpCTtqmiHXRcfGFI-32" value="" style="endArrow=classic;html=1;exitX=0.5;exitY=0;exitDx=0;exitDy=0;entryX=1;entryY=0.5;entryDx=0;entryDy=0;entryPerimeter=0;" edge="1" parent="hoVFeAc2EoDn5N3kzw5v-1" source="VtDRNpCTtqmiHXRcfGFI-19">
          <mxGeometry width="50" height="50" relative="1" as="geometry">
            <mxPoint x="1118.0000000000002" y="366" as="sourcePoint" />
            <mxPoint x="1061.9999999999998" y="366.0000000000002" as="targetPoint" />
            <Array as="points">
              <mxPoint x="1124" y="366" />
            </Array>
          </mxGeometry>
        </mxCell>
        <mxCell id="VtDRNpCTtqmiHXRcfGFI-33" value="" style="endArrow=classic;html=1;" edge="1" parent="hoVFeAc2EoDn5N3kzw5v-1">
          <mxGeometry width="50" height="50" relative="1" as="geometry">
            <mxPoint x="1006.5799999999999" y="606" as="sourcePoint" />
            <mxPoint x="1006.9999999999998" y="633" as="targetPoint" />
          </mxGeometry>
        </mxCell>
        <mxCell id="VtDRNpCTtqmiHXRcfGFI-34" value="" style="endArrow=classic;html=1;exitX=0;exitY=0.5;exitDx=0;exitDy=0;" edge="1" parent="hoVFeAc2EoDn5N3kzw5v-1" source="VtDRNpCTtqmiHXRcfGFI-18" target="VtDRNpCTtqmiHXRcfGFI-2">
          <mxGeometry width="50" height="50" relative="1" as="geometry">
            <mxPoint x="945" y="658" as="sourcePoint" />
            <mxPoint x="945" y="724" as="targetPoint" />
          </mxGeometry>
        </mxCell>
        <mxCell id="VtDRNpCTtqmiHXRcfGFI-35" value="" style="endArrow=classic;html=1;" edge="1" parent="hoVFeAc2EoDn5N3kzw5v-1" source="VtDRNpCTtqmiHXRcfGFI-18" target="VtDRNpCTtqmiHXRcfGFI-29">
          <mxGeometry width="50" height="50" relative="1" as="geometry">
            <mxPoint x="1309" y="630" as="sourcePoint" />
            <mxPoint x="1309" y="696" as="targetPoint" />
          </mxGeometry>
        </mxCell>
        <mxCell id="VtDRNpCTtqmiHXRcfGFI-36" value="文档服务&lt;br&gt;转码模块" style="whiteSpace=wrap;html=1;fillColor=#f8cecc;rounded=1;strokeColor=#b85450;" vertex="1" parent="hoVFeAc2EoDn5N3kzw5v-1">
          <mxGeometry x="1116.12" y="696" width="80" height="40" as="geometry" />
        </mxCell>
        <mxCell id="VtDRNpCTtqmiHXRcfGFI-37" value="" style="aspect=fixed;html=1;points=[];align=center;image;fontSize=12;image=img/lib/mscae/Docker.svg;labelBackgroundColor=none;" vertex="1" parent="hoVFeAc2EoDn5N3kzw5v-1">
          <mxGeometry x="1086" y="738" width="140.24" height="115" as="geometry" />
        </mxCell>
        <mxCell id="VtDRNpCTtqmiHXRcfGFI-38" value="文档服务&lt;br&gt;转码模块" style="whiteSpace=wrap;html=1;fillColor=#f8cecc;rounded=1;strokeColor=#b85450;" vertex="1" parent="hoVFeAc2EoDn5N3kzw5v-1">
          <mxGeometry x="1266.12" y="696" width="80" height="40" as="geometry" />
        </mxCell>
        <mxCell id="VtDRNpCTtqmiHXRcfGFI-39" value="" style="aspect=fixed;html=1;points=[];align=center;image;fontSize=12;image=img/lib/mscae/Docker.svg;labelBackgroundColor=none;" vertex="1" parent="hoVFeAc2EoDn5N3kzw5v-1">
          <mxGeometry x="1236" y="738" width="140.24" height="115" as="geometry" />
        </mxCell>
        <mxCell id="VtDRNpCTtqmiHXRcfGFI-40" value="" style="endArrow=classic;html=1;exitX=0.75;exitY=1;exitDx=0;exitDy=0;entryX=0.5;entryY=0;entryDx=0;entryDy=0;" edge="1" parent="hoVFeAc2EoDn5N3kzw5v-1" source="VtDRNpCTtqmiHXRcfGFI-18" target="VtDRNpCTtqmiHXRcfGFI-36">
          <mxGeometry width="50" height="50" relative="1" as="geometry">
            <mxPoint x="1018" y="681" as="sourcePoint" />
            <mxPoint x="1018" y="706" as="targetPoint" />
          </mxGeometry>
        </mxCell>
        <mxCell id="VtDRNpCTtqmiHXRcfGFI-41" value="" style="endArrow=classic;html=1;exitX=1;exitY=0.75;exitDx=0;exitDy=0;entryX=0.5;entryY=0;entryDx=0;entryDy=0;" edge="1" parent="hoVFeAc2EoDn5N3kzw5v-1" source="VtDRNpCTtqmiHXRcfGFI-18" target="VtDRNpCTtqmiHXRcfGFI-38">
          <mxGeometry width="50" height="50" relative="1" as="geometry">
            <mxPoint x="1048" y="653" as="sourcePoint" />
            <mxPoint x="1176.12" y="678" as="targetPoint" />
          </mxGeometry>
        </mxCell>
        <mxCell id="VtDRNpCTtqmiHXRcfGFI-42" value="" style="endArrow=classic;html=1;exitX=0;exitY=0.75;exitDx=0;exitDy=0;entryX=0.5;entryY=0;entryDx=0;entryDy=0;" edge="1" parent="hoVFeAc2EoDn5N3kzw5v-1" source="VtDRNpCTtqmiHXRcfGFI-18" target="VtDRNpCTtqmiHXRcfGFI-28">
          <mxGeometry width="50" height="50" relative="1" as="geometry">
            <mxPoint x="978" y="661" as="sourcePoint" />
            <mxPoint x="889" y="661.780701754386" as="targetPoint" />
          </mxGeometry>
        </mxCell>
        <mxCell id="VtDRNpCTtqmiHXRcfGFI-43" value="&lt;span style=&quot;color: rgb(0 , 0 , 0) ; font-family: &amp;#34;helvetica&amp;#34; ; font-style: normal ; font-weight: 400 ; letter-spacing: normal ; text-align: center ; text-indent: 0px ; text-transform: none ; word-spacing: 0px ; background-color: rgb(248 , 249 , 250) ; display: inline ; float: none&quot;&gt;&lt;font style=&quot;font-size: 24px&quot;&gt;...&lt;/font&gt;&lt;/span&gt;" style="text;whiteSpace=wrap;html=1;" vertex="1" parent="hoVFeAc2EoDn5N3kzw5v-1">
          <mxGeometry x="1220" y="696" width="20" height="48" as="geometry" />
        </mxCell>
      </root>
    </mxGraphModel>
  </diagram>
</mxfile>
